<svg width="48" height="41" viewBox="0 0 48 41" fill="none" xmlns="http://www.w3.org/2000/svg">
<g clip-path="url(#clip0_1_326)">
<path d="M23.5853 20.4717C23.7576 20.4679 23.9347 20.4793 24.107 20.4831C24.1644 20.4831 24.2219 20.4717 24.2793 20.4717H23.5853Z" fill="white"/>
<path d="M24.3176 25.0634C24.3415 25.0634 24.3607 25.0593 24.3846 25.0593C24.4181 25.0593 24.4468 25.0634 24.4755 25.0634H24.3176ZM14.7312 16.6666C14.7552 16.6625 14.7695 16.6379 14.7982 16.6338C16.3393 21.4098 20.3308 24.9856 24.3894 25.0593C28.0842 24.916 32.6213 21.4057 34.1289 16.6543C34.8228 16.6871 35.5216 15.9867 35.713 15.0118C35.9141 13.9919 35.4929 13.0867 34.775 12.9802C34.7271 12.9761 34.6793 13.0007 34.6362 13.0007C34.4304 5.14047 30.0704 2.37158 24.576 2.25279C18.9094 2.27327 13.8362 5.64838 14.1617 13.0089C14.109 13.0048 14.0564 12.9802 14.0038 12.9884C13.2859 13.0949 12.8647 14.0042 13.0657 15.02C13.2571 16.0235 14.0038 16.769 14.7312 16.6666ZM1.39264 38.7072C1.39264 36.5322 1.8856 34.7136 2.76144 33.1858C1.38307 32.2683 0.478516 30.847 0.478516 29.2413C0.478516 26.4683 3.11082 24.2155 6.35572 24.2155C8.80137 24.2155 10.8976 25.5017 11.783 27.3244C13.3241 26.923 14.9897 26.6281 16.7557 26.4233L21.8959 35.0454L22.7095 29.4379L21.4412 28.545H27.3375L26.0645 29.4379L26.8781 35.0454L32.023 26.4233C40.9633 27.4514 47.3813 30.7323 47.3813 38.7072H1.39264ZM2.11533 29.2413C2.11533 30.335 2.69443 31.3057 3.5942 31.9693C4.33603 32.5222 5.29323 32.8663 6.35094 32.8663C8.68651 32.8663 10.5865 31.2402 10.5865 29.2413C10.5865 28.7211 10.4525 28.2255 10.2228 27.7791C9.56234 26.5093 8.07868 25.6164 6.35094 25.6164C4.02016 25.6164 2.11533 27.2425 2.11533 29.2413ZM5.53253 29.9418V32.1659H7.16934V29.9418H9.76814V28.5409H7.16934V26.3168H5.53253V28.5409H2.93852V29.9418H5.53253Z" fill="white"/>
</g>
<defs>
<clipPath id="clip0_1_326">
<rect width="47.86" height="40.96" fill="white"/>
</clipPath>
</defs>
</svg>
