<svg width="24" height="24" viewBox="0 0 24 24" fill="none" xmlns="http://www.w3.org/2000/svg">
<path d="M10.8984 22.3344H13.104V14.94C13.104 13.7232 14.0928 12.7344 15.3096 12.7344C16.5264 12.7344 17.5152 13.7232 17.5152 14.94V22.3344H19.3536V11.2608C19.3536 10.0464 20.3424 9.05999 21.5592 9.05999C22.776 9.05999 23.7648 10.0464 23.7648 11.2608V23.76H21.5592H0.23999V23.0472V16.4088C0.23999 15.192 1.22879 14.2056 2.44559 14.2056C3.66239 14.2056 4.65119 15.192 4.65119 16.4088V22.3344H6.48959V12.7296C6.48959 11.5152 7.47839 10.5312 8.69519 10.5312C9.91199 10.5312 10.9008 11.5152 10.9008 12.7296V22.3344H10.8984ZM19.4952 2.60639L16.7424 3.74159C16.3536 3.34079 15.8088 3.09119 15.2064 3.09119C14.4576 3.09119 13.8 3.47519 13.4184 4.05839L10.9176 3.56399C10.7976 2.49599 9.89279 1.66799 8.79359 1.66799C7.61279 1.66799 6.65519 2.62559 6.65519 3.80639C6.65519 3.87599 6.65759 3.94559 6.66479 4.01279L3.72479 5.70959C3.35759 5.41199 2.88719 5.23199 2.37839 5.23199C1.19759 5.22959 0.23999 6.18719 0.23999 7.36799C0.23999 8.54879 1.19759 9.50639 2.37839 9.50639C3.55919 9.50639 4.51679 8.54879 4.51679 7.36799C4.51679 7.21679 4.49999 7.06799 4.47119 6.92399L7.27199 5.30639C7.66079 5.69999 8.19839 5.94239 8.79359 5.94239C9.58079 5.94239 10.2696 5.51759 10.6392 4.88399L13.0728 5.36639C13.1424 6.48479 14.0712 7.37039 15.2064 7.37039C16.3872 7.37039 17.3448 6.41279 17.3448 5.23199C17.3448 5.16239 17.3424 5.09519 17.3352 5.02799L20.1024 3.88559C20.4888 4.27679 21.0264 4.51679 21.6192 4.51679C22.8 4.51679 23.7576 3.55919 23.7576 2.37839C23.7576 1.19759 22.8 0.23999 21.6192 0.23999C20.4384 0.23999 19.4808 1.19759 19.4808 2.37839C19.4832 2.45519 19.488 2.53199 19.4952 2.60639ZM2.37839 8.08079C2.77199 8.08079 3.09119 7.76159 3.09119 7.36799C3.09119 6.97439 2.77199 6.65519 2.37839 6.65519C1.98479 6.65519 1.66559 6.97439 1.66559 7.36799C1.66559 7.76159 1.98479 8.08079 2.37839 8.08079ZM8.79359 4.51679C9.18719 4.51679 9.50639 4.19759 9.50639 3.80399C9.50639 3.41039 9.18719 3.09119 8.79359 3.09119C8.39999 3.09119 8.08079 3.41039 8.08079 3.80399C8.08079 4.19759 8.39999 4.51679 8.79359 4.51679ZM15.2064 5.94239C15.6 5.94239 15.9192 5.62319 15.9192 5.22959C15.9192 4.83599 15.6 4.51679 15.2064 4.51679C14.8128 4.51679 14.4936 4.83599 14.4936 5.22959C14.4936 5.62319 14.8128 5.94239 15.2064 5.94239ZM21.6216 3.09119C22.0152 3.09119 22.3344 2.77199 22.3344 2.37839C22.3344 1.98479 22.0152 1.66559 21.6216 1.66559C21.228 1.66559 20.9088 1.98479 20.9088 2.37839C20.9088 2.77199 21.228 3.09119 21.6216 3.09119ZM14.5728 14.9376C14.5728 14.5344 14.8992 14.2056 15.3072 14.2056C15.7128 14.2056 16.0416 14.532 16.0416 14.9376V22.2912H14.5704V14.9376H14.5728ZM1.70879 16.4088C1.70879 16.0032 2.03519 15.6768 2.44319 15.6768C2.84879 15.6768 3.17759 16.0056 3.17759 16.4088V22.2912H1.70879V16.4088ZM7.95839 12.7392C7.95839 12.3312 8.28479 12 8.69279 12C9.09839 12 9.42719 12.3312 9.42719 12.7392V22.2888H7.95599V12.7392H7.95839ZM20.82 11.2656C20.82 10.86 21.1464 10.5288 21.5544 10.5288C21.96 10.5288 22.2888 10.8552 22.2888 11.2656V22.2888H20.8176V11.2656H20.82Z" fill="#2C5976" fill-opacity="0.5"/>
</svg>
