<svg width="24" height="24" viewBox="0 0 24 24" fill="none" xmlns="http://www.w3.org/2000/svg">
<g clip-path="url(#clip0_1_2176)">
<path d="M0 1.125C0 0.501562 0.40125 0 0.9 0H23.1C23.5988 0 24 0.501562 24 1.125C24 1.74844 23.5988 2.25 23.1 2.25H0.9C0.40125 2.25 0 1.74844 0 1.125ZM0 22.875C0 22.2516 0.40125 21.75 0.9 21.75H23.1C23.5988 21.75 24 22.2516 24 22.875C24 23.4984 23.5988 24 23.1 24H0.9C0.40125 24 0 23.4984 0 22.875ZM7.92 7.5C7.92 9.15469 6.84375 10.5 5.52 10.5C4.19625 10.5 3.12 9.15469 3.12 7.5C3.12 5.84531 4.19625 4.5 5.52 4.5C6.84375 4.5 7.92 5.84531 7.92 7.5ZM1.2 15C1.2 13.3453 2.27625 12 3.6 12H7.2C7.6575 12 8.08875 12.1594 8.4525 12.4406C7.0575 13.1484 5.9925 14.6531 5.61 16.5H2.4C1.73625 16.5 1.2 15.8297 1.2 15ZM18.51 16.5C18.1238 14.6203 17.025 13.0969 15.5963 12.4031C15.9488 12.1453 16.3612 12 16.8 12H20.4C21.7238 12 22.8 13.3453 22.8 15C22.8 15.8297 22.2638 16.5 21.6 16.5H18.51ZM14.67 13.6125C15.8738 13.9594 16.8488 15.0609 17.2538 16.5C17.385 16.9688 17.46 17.475 17.46 18C17.46 18.8297 16.9238 19.5 16.26 19.5H7.86C7.19625 19.5 6.66 18.8297 6.66 18C6.66 17.475 6.73125 16.9688 6.86625 16.5C7.26 15.1078 8.19 14.025 9.345 13.6453C9.6375 13.5469 9.945 13.5 10.2638 13.5H13.8638C14.1413 13.5 14.415 13.5375 14.6737 13.6125H14.67ZM21.12 7.5C21.12 9.15469 20.0438 10.5 18.72 10.5C17.3963 10.5 16.32 9.15469 16.32 7.5C16.32 5.84531 17.3963 4.5 18.72 4.5C20.0438 4.5 21.12 5.84531 21.12 7.5ZM12.06 12C10.4025 12 9.06 10.3219 9.06 8.25C9.06 6.17812 10.4025 4.5 12.06 4.5C13.7175 4.5 15.06 6.17812 15.06 8.25C15.06 10.3219 13.7175 12 12.06 12Z" fill="#2C5976" fill-opacity="0.5"/>
</g>
<defs>
<clipPath id="clip0_1_2176">
<rect width="24" height="24" fill="white"/>
</clipPath>
</defs>
</svg>
