<svg width="17" height="28" viewBox="0 0 17 28" fill="none" xmlns="http://www.w3.org/2000/svg">
<path d="M11.3737 2.625C11.3737 4.07422 10.1979 5.25 8.7487 5.25C7.29948 5.25 6.1237 4.07422 6.1237 2.625C6.1237 1.17578 7.29948 0 8.7487 0C10.1979 0 11.3737 1.17578 11.3737 2.625ZM8.3112 19.25V26.25C8.3112 27.218 7.52917 28 6.5612 28C5.59323 28 4.8112 27.218 4.8112 26.25V14.0492L3.24713 16.6523C2.74948 17.4781 1.67213 17.7461 0.846353 17.2484C0.0205721 16.7508 -0.247397 15.6734 0.25026 14.8477L3.43854 9.54297C4.3901 7.9625 6.09635 6.99453 7.93932 6.99453H9.56354C11.4065 6.99453 13.1128 7.9625 14.0643 9.54297L17.2526 14.8477C17.7503 15.6734 17.4823 16.7508 16.6565 17.2484C15.8307 17.7461 14.7534 17.4781 14.2557 16.6523L12.6862 14.0492V26.25C12.6862 27.218 11.9042 28 10.9362 28C9.96823 28 9.1862 27.218 9.1862 26.25V19.25H8.3112Z" fill="#2C5976" fill-opacity="0.5"/>
</svg>
