<svg width="18" height="28" viewBox="0 0 18 28" fill="none" xmlns="http://www.w3.org/2000/svg">
<path d="M8.72832 5.25C7.28268 5.25 6.1098 4.07422 6.1098 2.625C6.1098 1.17578 7.28268 0 8.72832 0C10.174 0 11.3468 1.17578 11.3468 2.625C11.3468 4.07422 10.174 5.25 8.72832 5.25ZM4.80054 21H3.8295C3.23488 21 2.81483 20.4148 3.00031 19.8461L5.08967 13.568L3.24034 16.6523C2.74391 17.4781 1.66923 17.7461 0.845484 17.2484C0.0217421 16.7508 -0.245565 15.6734 0.250862 14.8477L3.17487 9.96953C4.28229 8.12656 6.268 7 8.41191 7H9.04472C11.1886 7 13.1743 8.12656 14.2818 9.96953L17.2058 14.8477C17.7022 15.6734 17.4349 16.7508 16.6111 17.2484C15.7874 17.7461 14.7127 17.4781 14.2163 16.6523L12.367 13.5734L14.4563 19.8461C14.6473 20.4148 14.2218 21 13.6271 21H12.6561V26.25C12.6561 27.218 11.876 28 10.9104 28C9.94484 28 9.16474 27.218 9.16474 26.25V21H8.2919V26.25C8.2919 27.218 7.5118 28 6.54622 28C5.58064 28 4.80054 27.218 4.80054 26.25V21Z" fill="#2C5976" fill-opacity="0.5"/>
</svg>
