<svg width="24" height="24" viewBox="0 0 24 24" fill="none" xmlns="http://www.w3.org/2000/svg">
<g clip-path="url(#clip0_1_1007)">
<path d="M13.2 6C13.2 9.31406 11.0513 12 8.4 12C5.74875 12 3.6 9.31406 3.6 6C3.6 2.68594 5.74875 0 8.4 0C11.0513 0 13.2 2.68594 13.2 6ZM0 22.6078C0 17.9906 2.9925 14.25 6.68625 14.25H10.1138C13.8075 14.25 16.8 17.9906 16.8 22.6078C16.8 23.3766 16.3013 24 15.6862 24H1.11375C0.49875 24 0 23.3766 0 22.6078ZM18.9 14.625V11.625H16.5C16.0012 11.625 15.6 11.1234 15.6 10.5C15.6 9.87656 16.0012 9.375 16.5 9.375H18.9V6.375C18.9 5.75156 19.3013 5.25 19.8 5.25C20.2988 5.25 20.7 5.75156 20.7 6.375V9.375H23.1C23.5988 9.375 24 9.87656 24 10.5C24 11.1234 23.5988 11.625 23.1 11.625H20.7V14.625C20.7 15.2484 20.2988 15.75 19.8 15.75C19.3013 15.75 18.9 15.2484 18.9 14.625Z" fill="#2C5976" fill-opacity="0.5"/>
</g>
<defs>
<clipPath id="clip0_1_1007">
<rect width="24" height="24" fill="white"/>
</clipPath>
</defs>
</svg>
