<svg width="24" height="22" viewBox="0 0 24 22" fill="none" xmlns="http://www.w3.org/2000/svg">
<path d="M6.9 3.125C6.9 4.57344 5.95875 5.75 4.8 5.75C3.64125 5.75 2.7 4.57344 2.7 3.125C2.7 1.67656 3.64125 0.5 4.8 0.5C5.95875 0.5 6.9 1.67656 6.9 3.125ZM2.4 10.5172C2.025 11.0422 1.8 11.7406 1.8 12.5C1.8 13.2594 2.025 13.9578 2.4 14.4828V10.5172ZM7.815 8.20625C6.70125 9.43906 6 11.2437 6 13.25C6 14.8578 6.45 16.3344 7.2 17.4922V18.5C7.2 19.3297 6.66375 20 6 20H3.6C2.93625 20 2.4 19.3297 2.4 18.5V17.2438C0.9825 16.4 0 14.5953 0 12.5C0 9.59844 1.87875 7.25 4.2 7.25H5.4C6.3 7.25 7.1325 7.60156 7.815 8.20156V8.20625ZM16.8 18.5V17.4922C17.55 16.3344 18 14.8578 18 13.25C18 11.2437 17.2988 9.43906 16.185 8.20156C16.8675 7.60156 17.7 7.25 18.6 7.25H19.8C22.1213 7.25 24 9.59844 24 12.5C24 14.5953 23.0175 16.4 21.6 17.2438V18.5C21.6 19.3297 21.0638 20 20.4 20H18C17.3363 20 16.8 19.3297 16.8 18.5ZM21.3 3.125C21.3 4.57344 20.3588 5.75 19.2 5.75C18.0413 5.75 17.1 4.57344 17.1 3.125C17.1 1.67656 18.0413 0.5 19.2 0.5C20.3588 0.5 21.3 1.67656 21.3 3.125ZM21.6 10.5172V14.4875C21.975 13.9578 22.2 13.2641 22.2 12.5047C22.2 11.7453 21.975 11.0469 21.6 10.5219V10.5172ZM12 6.5C10.6763 6.5 9.6 5.15469 9.6 3.5C9.6 1.84531 10.6763 0.5 12 0.5C13.3238 0.5 14.4 1.84531 14.4 3.5C14.4 5.15469 13.3238 6.5 12 6.5ZM9 13.25C9 14.0094 9.225 14.7031 9.6 15.2328V11.2672C9.225 11.7969 9 12.4906 9 13.25ZM14.4 11.2672V15.2375C14.775 14.7078 15 14.0141 15 13.2547C15 12.4953 14.775 11.7969 14.4 11.2719V11.2672ZM16.8 13.25C16.8 15.3453 15.8175 17.15 14.4 17.9938V20C14.4 20.8297 13.8638 21.5 13.2 21.5H10.8C10.1363 21.5 9.6 20.8297 9.6 20V17.9938C8.1825 17.15 7.2 15.3453 7.2 13.25C7.2 10.3484 9.07875 8 11.4 8H12.6C14.9213 8 16.8 10.3484 16.8 13.25Z" fill="#2C5976" fill-opacity="0.5"/>
</svg>
