<svg width="24" height="24" viewBox="0 0 24 24" fill="none" xmlns="http://www.w3.org/2000/svg">
<path d="M5.4 7.5C3.7425 7.5 2.4 5.82188 2.4 3.75C2.4 1.67812 3.7425 0 5.4 0C7.0575 0 8.4 1.67812 8.4 3.75C8.4 5.82188 7.0575 7.5 5.4 7.5ZM19.2 7.5C17.5425 7.5 16.2 5.82188 16.2 3.75C16.2 1.67812 17.5425 0 19.2 0C20.8575 0 22.2 1.67812 22.2 3.75C22.2 5.82188 20.8575 7.5 19.2 7.5ZM0 14.0016C0 11.2406 1.7925 9 4.00125 9H5.6025C6.19875 9 6.765 9.16406 7.275 9.45469C7.22625 9.79219 7.20375 10.1438 7.20375 10.5C7.20375 12.2906 7.83375 13.8984 8.8275 15C8.82 15 8.8125 15 8.80125 15H0.79875C0.36 15 0 14.55 0 14.0016ZM15.1988 15C15.1912 15 15.1838 15 15.1725 15C16.17 13.8984 16.7963 12.2906 16.7963 10.5C16.7963 10.1438 16.77 9.79688 16.725 9.45469C17.235 9.15938 17.8013 9 18.3975 9H19.9988C22.2075 9 24 11.2406 24 14.0016C24 14.5547 23.64 15 23.2013 15H15.1988ZM15.6 10.5C15.6 12.9844 13.9875 15 12 15C10.0125 15 8.4 12.9844 8.4 10.5C8.4 8.01562 10.0125 6 12 6C13.9875 6 15.6 8.01562 15.6 10.5ZM4.8 22.7484C4.8 19.2984 7.03875 16.5 9.79875 16.5H14.2013C16.9613 16.5 19.2 19.2984 19.2 22.7484C19.2 23.4375 18.7537 24 18.1987 24H5.80125C5.25 24 4.8 23.4422 4.8 22.7484Z" fill="#2C5976" fill-opacity="0.5"/>
</svg>
