<svg width="24" height="24" viewBox="0 0 24 24" fill="none" xmlns="http://www.w3.org/2000/svg">
<g clip-path="url(#clip0_1_1782)">
<path d="M5.39991 0C4.90116 0 4.49991 0.501562 4.49991 1.125V6.66094L3.63741 5.57812C3.28491 5.1375 2.71491 5.1375 2.36616 5.57812C2.01741 6.01875 2.01366 6.73125 2.36616 7.16719L4.76616 10.1672C5.11866 10.6078 5.68866 10.6078 6.03741 10.1672L8.43741 7.16719C8.78991 6.72656 8.78991 6.01406 8.43741 5.57812C8.08491 5.14219 7.51491 5.1375 7.16616 5.57812L6.30366 6.65625V1.125C6.30366 0.501562 5.90241 0 5.40366 0H5.39991ZM13.4999 9.375C13.4999 8.33906 12.8287 7.5 11.9999 7.5C11.1712 7.5 10.4999 8.33906 10.4999 9.375C10.4999 10.4109 11.1712 11.25 11.9999 11.25C12.8287 11.25 13.4999 10.4109 13.4999 9.375ZM6.89991 13.875C6.89991 12.8391 6.22866 12 5.39991 12C4.57116 12 3.89991 12.8391 3.89991 13.875C3.89991 14.9109 4.57116 15.75 5.39991 15.75C6.22866 15.75 6.89991 14.9109 6.89991 13.875ZM18.5999 15.75C19.4287 15.75 20.0999 14.9109 20.0999 13.875C20.0999 12.8391 19.4287 12 18.5999 12C17.7712 12 17.0999 12.8391 17.0999 13.875C17.0999 14.9109 17.7712 15.75 18.5999 15.75ZM7.49991 20.6953L8.50866 23.0344C8.74491 23.5828 9.28866 23.7844 9.72741 23.4938C10.1662 23.2031 10.3274 22.5188 10.0949 21.9703L8.73366 18.8063C8.79741 18.7266 8.85366 18.6375 8.89491 18.5344L9.89991 16.1953V18.75C9.89991 19.5797 10.4362 20.25 11.0999 20.25H12.8999C13.5637 20.25 14.0999 19.5797 14.0999 18.75V16.1953L15.1087 18.5344C15.1537 18.6375 15.2062 18.7266 15.2699 18.8063L13.9087 21.9703C13.6724 22.5188 13.8374 23.1984 14.2762 23.4938C14.7149 23.7891 15.2587 23.5828 15.4949 23.0344L16.4999 20.6953V22.5C16.4999 23.3297 17.0362 24 17.6999 24H19.4999C20.1637 24 20.6999 23.3297 20.6999 22.5V20.6953L21.7087 23.0344C21.9449 23.5828 22.4887 23.7844 22.9274 23.4938C23.3662 23.2031 23.5274 22.5188 23.2949 21.9703L21.8737 18.675C21.2999 17.3391 20.1824 16.5047 18.9674 16.5047H18.2324C17.6212 16.5047 17.0362 16.7156 16.5299 17.0953L15.2699 14.175C14.6962 12.8391 13.5787 12.0047 12.3637 12.0047H11.6324C10.4174 12.0047 9.30366 12.8391 8.72616 14.175L7.46616 17.0953C6.95991 16.7156 6.37491 16.5047 5.76366 16.5047H5.03241C3.81741 16.5047 2.70366 17.3391 2.12616 18.675L0.708661 21.9656C0.472411 22.5141 0.637411 23.1938 1.07616 23.4891C1.51491 23.7844 2.05866 23.5781 2.29491 23.0297L3.29991 20.6953V22.5C3.29991 23.3297 3.83616 24 4.49991 24H6.29991C6.96366 24 7.49991 23.3297 7.49991 22.5V20.6953ZM15.5624 7.17188L17.9624 10.1719C18.3149 10.6125 18.8849 10.6125 19.2337 10.1719L21.6337 7.17188C21.9862 6.73125 21.9862 6.01875 21.6337 5.58281C21.2812 5.14687 20.7112 5.14219 20.3624 5.58281L19.4999 6.66094V1.125C19.4999 0.501562 19.0987 0 18.5999 0C18.1012 0 17.6999 0.501562 17.6999 1.125V6.66094L16.8374 5.58281C16.4849 5.14219 15.9149 5.14219 15.5662 5.58281C15.2174 6.02344 15.2137 6.73594 15.5662 7.17188H15.5624Z" fill="#2C5976" fill-opacity="0.5"/>
</g>
<defs>
<clipPath id="clip0_1_1782">
<rect width="24" height="24" fill="white"/>
</clipPath>
</defs>
</svg>
