<svg width="32" height="32" viewBox="0 0 32 32" fill="none" xmlns="http://www.w3.org/2000/svg">
<g clip-path="url(#clip0_1_819)">
<path d="M7.2 10C4.99 10 3.2 7.7625 3.2 5C3.2 2.2375 4.99 0 7.2 0C9.41 0 11.2 2.2375 11.2 5C11.2 7.7625 9.41 10 7.2 10ZM25.6 10C23.39 10 21.6 7.7625 21.6 5C21.6 2.2375 23.39 0 25.6 0C27.81 0 29.6 2.2375 29.6 5C29.6 7.7625 27.81 10 25.6 10ZM0 18.6688C0 14.9875 2.39 12 5.335 12H7.47C8.265 12 9.02 12.2188 9.7 12.6062C9.635 13.0562 9.605 13.525 9.605 14C9.605 16.3875 10.445 18.5312 11.77 20C11.76 20 11.75 20 11.735 20H1.065C0.48 20 0 19.4 0 18.6688ZM20.265 20C20.255 20 20.245 20 20.23 20C21.56 18.5312 22.395 16.3875 22.395 14C22.395 13.525 22.36 13.0625 22.3 12.6062C22.98 12.2125 23.735 12 24.53 12H26.665C29.61 12 32 14.9875 32 18.6688C32 19.4062 31.52 20 30.935 20H20.265ZM20.8 14C20.8 17.3125 18.65 20 16 20C13.35 20 11.2 17.3125 11.2 14C11.2 10.6875 13.35 8 16 8C18.65 8 20.8 10.6875 20.8 14ZM6.4 30.3312C6.4 25.7312 9.385 22 13.065 22H18.935C22.615 22 25.6 25.7312 25.6 30.3312C25.6 31.25 25.005 32 24.265 32H7.735C7 32 6.4 31.2562 6.4 30.3312Z" fill="white"/>
</g>
<defs>
<clipPath id="clip0_1_819">
<rect width="32" height="32" fill="white"/>
</clipPath>
</defs>
</svg>
