<svg width="32" height="32" viewBox="0 0 32 32" fill="none" xmlns="http://www.w3.org/2000/svg">
<path d="M1.94004 0.318659C1.42004 -0.193841 0.665037 -0.0750912 0.255037 0.574909C-0.154963 1.22491 -0.0599631 2.16866 0.460037 2.68116L30.06 31.6812C30.58 32.1937 31.335 32.0749 31.745 31.4249C32.155 30.7749 32.06 29.8312 31.54 29.3187L22.03 19.9999H30.935C31.525 19.9999 32 19.3999 32 18.6687C32 14.9874 29.61 11.9999 26.665 11.9999H24.535C23.74 11.9999 22.985 12.2187 22.305 12.6062C22.37 13.0562 22.4 13.5249 22.4 13.9999C22.4 15.8874 21.875 17.6249 21 18.9937L19.74 17.7624C20.405 16.7312 20.8 15.4249 20.8 13.9999C20.8 10.6874 18.65 7.99991 16 7.99991C14.445 7.99991 13.065 8.92491 12.185 10.3562L10.155 8.36866C10.805 7.48116 11.2 6.29991 11.2 4.99991C11.2 2.23741 9.41004 -9.11936e-05 7.20004 -9.11936e-05C5.81504 -9.11936e-05 4.59504 0.881159 3.87504 2.21866L1.94004 0.318659ZM5.33504 11.9999C2.39004 11.9999 3.69084e-05 14.9874 3.69084e-05 18.6687C3.69084e-05 19.3999 0.480037 19.9999 1.06504 19.9999H11.735C11.745 19.9999 11.755 19.9999 11.77 19.9999C10.74 18.8624 10.01 17.3249 9.73004 15.5749L6.09004 11.9999H5.33504ZM13.065 21.9999C9.38504 21.9999 6.40004 25.7312 6.40004 30.3312C6.40004 31.2499 6.99504 31.9999 7.73504 31.9999H24.265C24.79 31.9999 25.24 31.6249 25.46 31.0749L16.245 21.9999H13.065ZM25.6 9.99991C27.81 9.99991 29.6 7.76241 29.6 4.99991C29.6 2.23741 27.81 -9.11936e-05 25.6 -9.11936e-05C23.39 -9.11936e-05 21.6 2.23741 21.6 4.99991C21.6 7.76241 23.39 9.99991 25.6 9.99991Z" fill="white"/>
</svg>
