<svg width="32" height="32" viewBox="0 0 32 32" fill="none" xmlns="http://www.w3.org/2000/svg">
<path d="M11.5555 2.9999C11.5555 4.65615 10.361 5.9999 8.88879 5.9999C7.41656 5.9999 6.22212 4.65615 6.22212 2.9999C6.22212 1.34365 7.41656 -9.53674e-05 8.88879 -9.53674e-05C10.361 -9.53674e-05 11.5555 1.34365 11.5555 2.9999ZM8.44434 21.9999V29.9999C8.44434 31.1062 7.6499 31.9999 6.66656 31.9999C5.68323 31.9999 4.88879 31.1062 4.88879 29.9999V16.0562L3.2999 19.0312C2.79434 19.9749 1.6999 20.2812 0.861008 19.7124C0.0221194 19.1437 -0.250103 17.9124 0.255453 16.9687L3.49434 10.9062C4.46101 9.09991 6.19434 7.99365 8.06656 7.99365H9.71656C11.5888 7.99365 13.3221 9.09991 14.2888 10.9062L16.7832 15.5749C15.8888 16.6749 15.1943 17.9812 14.7499 19.4187C14.6443 19.3062 14.5555 19.1749 14.4777 19.0249L12.8888 16.0562V29.9999C12.8888 31.1062 12.0943 31.9999 11.111 31.9999C10.1277 31.9999 9.33323 31.1062 9.33323 29.9999V21.9999H8.44434ZM31.9999 22.9999C31.9999 27.9687 28.4166 31.9999 23.9999 31.9999C19.5832 31.9999 15.9999 27.9687 15.9999 22.9999C15.9999 18.0312 19.5832 13.9999 23.9999 13.9999C28.4166 13.9999 31.9999 18.0312 31.9999 22.9999ZM27.7388 20.2937C27.3943 19.9062 26.8277 19.9062 26.4832 20.2937L23.111 24.0874L21.5166 22.2937C21.1721 21.9062 20.6055 21.9062 20.261 22.2937C19.9166 22.6812 19.9166 23.3187 20.261 23.7062L22.4832 26.2062C22.8277 26.5937 23.3943 26.5937 23.7388 26.2062L27.7388 21.7062C28.0832 21.3187 28.0832 20.6812 27.7388 20.2937Z" fill="white"/>
</svg>
