<svg width="32" height="32" viewBox="0 0 32 32" fill="none" xmlns="http://www.w3.org/2000/svg">
<path d="M2.4 3H6.8C7.465 3 8 2.33125 8 1.5C8 0.66875 7.465 0 6.8 0H1.6C0.715 0 0 0.89375 0 2V8.5C0 9.33125 0.535 10 1.2 10C1.865 10 2.4 9.33125 2.4 8.5V3ZM8.79 14C10.115 14 11.19 12.6562 11.19 11C11.19 9.34375 10.115 8 8.79 8C7.465 8 6.39 9.34375 6.39 11C6.39 12.6562 7.465 14 8.79 14ZM7.465 16C5.995 16 4.8 17.4937 4.8 19.3312C4.8 20.25 5.395 21 6.135 21H8.94C9.34 18.8687 10.58 17.1437 12.2 16.4C11.825 16.1437 11.39 16 10.935 16H7.465ZM25.865 21C26.6 21 27.2 20.2562 27.2 19.3312C27.2 17.4875 26.005 16 24.535 16H21.065C20.605 16 20.175 16.1437 19.8 16.4C21.42 17.1437 22.66 18.8687 23.06 21H25.865ZM21.395 21C20.965 19.4813 19.9 18.3375 18.6 18.0625C18.405 18.0187 18.205 18 18 18H14C13.795 18 13.595 18.0187 13.4 18.0625C12.1 18.3375 11.035 19.4813 10.605 21C10.47 21.4688 10.4 21.975 10.4 22.5C10.4 23.3312 10.935 24 11.6 24H20.4C21.065 24 21.6 23.3312 21.6 22.5C21.6 21.975 21.53 21.4688 21.395 21ZM23.2 14C24.525 14 25.6 12.6562 25.6 11C25.6 9.34375 24.525 8 23.2 8C21.875 8 20.8 9.34375 20.8 11C20.8 12.6562 21.875 14 23.2 14ZM19.2 12C19.2 9.79375 17.765 8 16 8C14.235 8 12.8 9.79375 12.8 12C12.8 14.2063 14.235 16 16 16C17.765 16 19.2 14.2063 19.2 12ZM25.2 3H29.6V8.5C29.6 9.33125 30.135 10 30.8 10C31.465 10 32 9.33125 32 8.5V2C32 0.89375 31.285 0 30.4 0H25.2C24.535 0 24 0.66875 24 1.5C24 2.33125 24.535 3 25.2 3ZM2.4 29V23.5C2.4 22.6688 1.865 22 1.2 22C0.535 22 0 22.6688 0 23.5V30C0 31.1063 0.715 32 1.6 32H6.8C7.465 32 8 31.3312 8 30.5C8 29.6688 7.465 29 6.8 29H2.4ZM25.2 29C24.535 29 24 29.6688 24 30.5C24 31.3312 24.535 32 25.2 32H30.4C31.285 32 32 31.1063 32 30V23.5C32 22.6688 31.465 22 30.8 22C30.135 22 29.6 22.6688 29.6 23.5V29H25.2Z" fill="white"/>
</svg>
