<svg width="32" height="32" viewBox="0 0 32 32" fill="none" xmlns="http://www.w3.org/2000/svg">
<g clip-path="url(#clip0_1_941)">
<path d="M17.6 8C17.6 12.4187 14.735 16 11.2 16C7.665 16 4.8 12.4187 4.8 8C4.8 3.58125 7.665 0 11.2 0C14.735 0 17.6 3.58125 17.6 8ZM0 30.1437C0 23.9875 3.99 19 8.915 19H13.485C18.41 19 22.4 23.9875 22.4 30.1437C22.4 31.1687 21.735 32 20.915 32H1.485C0.665 32 0 31.1687 0 30.1437ZM31.25 11.0625L24.85 19.0625C24.38 19.65 23.62 19.65 23.155 19.0625L19.955 15.0625C19.485 14.475 19.485 13.525 19.955 12.9438C20.425 12.3625 21.185 12.3563 21.65 12.9438L24 15.8813L29.55 8.9375C30.02 8.35 30.78 8.35 31.245 8.9375C31.71 9.525 31.715 10.475 31.245 11.0562L31.25 11.0625Z" fill="white"/>
</g>
<defs>
<clipPath id="clip0_1_941">
<rect width="32" height="32" fill="white"/>
</clipPath>
</defs>
</svg>
