<svg width="32" height="32" viewBox="0 0 32 32" fill="none" xmlns="http://www.w3.org/2000/svg">
<path d="M16.7749 0.249997L31.1749 10.25C31.9449 10.7875 32.2249 12.0062 31.795 12.9687C31.365 13.9312 30.3899 14.2812 29.6199 13.7437L15.9999 4.2875L2.37495 13.75C1.60495 14.2875 0.629948 13.9375 0.199948 12.975C-0.230052 12.0125 0.0499479 10.7937 0.819948 10.2562L15.2249 0.249997C15.7099 -0.087503 16.2949 -0.087503 16.7799 0.249997H16.7749ZM15.9999 15C14.8949 15 13.9999 13.8812 13.9999 12.5C13.9999 11.1187 14.8949 10 15.9999 10C17.1049 10 17.9999 11.1187 17.9999 12.5C17.9999 13.8812 17.1049 15 15.9999 15ZM7.19995 21C6.09495 21 5.19995 19.8812 5.19995 18.5C5.19995 17.1187 6.09495 16 7.19995 16C8.30495 16 9.19995 17.1187 9.19995 18.5C9.19995 19.8812 8.30495 21 7.19995 21ZM26.7999 18.5C26.7999 19.8812 25.9049 21 24.7999 21C23.6949 21 22.7999 19.8812 22.7999 18.5C22.7999 17.1187 23.6949 16 24.7999 16C25.9049 16 26.7999 17.1187 26.7999 18.5ZM11.3449 30.7125L9.99995 27.5937V30C9.99995 31.1062 9.28495 32 8.39995 32H5.99995C5.11495 32 4.39995 31.1062 4.39995 30V27.5937L3.05495 30.7125C2.73995 31.4437 2.01495 31.7125 1.42995 31.325C0.844948 30.9375 0.629948 30.025 0.939948 29.2937L2.83495 24.9C3.59995 23.1187 5.08995 22.0062 6.70995 22.0062H7.68495C8.49995 22.0062 9.27995 22.2875 9.95495 22.7937L11.6349 18.9C12.3999 17.1187 13.8899 16.0062 15.5099 16.0062H16.4849C18.1049 16.0062 19.5899 17.1187 20.3599 18.9L22.0399 22.7937C22.7149 22.2875 23.4949 22.0062 24.3099 22.0062H25.2849C26.9049 22.0062 28.3899 23.1187 29.1599 24.9L31.0549 29.2937C31.3699 30.025 31.1499 30.9312 30.5649 31.325C29.9799 31.7187 29.2549 31.4437 28.9399 30.7125L27.5999 27.5937V30C27.5999 31.1062 26.8849 32 25.9999 32H23.5999C22.7149 32 21.9999 31.1062 21.9999 30V27.5937L20.6549 30.7125C20.3399 31.4437 19.6149 31.7125 19.0299 31.325C18.4449 30.9375 18.2299 30.025 18.5399 29.2937L20.3549 25.075C20.2699 24.9687 20.1949 24.85 20.1399 24.7125L18.7999 21.5937V25C18.7999 26.1062 18.0849 27 17.1999 27H14.7999C13.9149 27 13.1999 26.1062 13.1999 25V21.5937L11.8549 24.7125C11.7949 24.85 11.7249 24.9687 11.6399 25.075L13.4549 29.2937C13.7699 30.025 13.5499 30.9312 12.9649 31.325C12.3799 31.7187 11.6549 31.4437 11.3399 30.7125H11.3449Z" fill="white"/>
</svg>
