<svg width="32" height="32" viewBox="0 0 32 32" fill="none" xmlns="http://www.w3.org/2000/svg">
<path d="M0 1.5C0 0.66875 0.535 0 1.2 0H30.8C31.465 0 32 0.66875 32 1.5C32 2.33125 31.465 3 30.8 3H1.2C0.535 3 0 2.33125 0 1.5ZM0 30.5C0 29.6688 0.535 29 1.2 29H30.8C31.465 29 32 29.6688 32 30.5C32 31.3312 31.465 32 30.8 32H1.2C0.535 32 0 31.3312 0 30.5ZM10.56 10C10.56 12.2063 9.125 14 7.36 14C5.595 14 4.16 12.2063 4.16 10C4.16 7.79375 5.595 6 7.36 6C9.125 6 10.56 7.79375 10.56 10ZM1.6 20C1.6 17.7938 3.035 16 4.8 16H9.6C10.21 16 10.785 16.2125 11.27 16.5875C9.41 17.5312 7.99 19.5375 7.48 22H3.2C2.315 22 1.6 21.1063 1.6 20ZM24.68 22C24.165 19.4937 22.7 17.4625 20.795 16.5375C21.265 16.1938 21.815 16 22.4 16H27.2C28.965 16 30.4 17.7938 30.4 20C30.4 21.1063 29.685 22 28.8 22H24.68ZM19.56 18.15C21.165 18.6125 22.465 20.0812 23.005 22C23.18 22.625 23.28 23.3 23.28 24C23.28 25.1063 22.565 26 21.68 26H10.48C9.595 26 8.88 25.1063 8.88 24C8.88 23.3 8.975 22.625 9.155 22C9.68 20.1437 10.92 18.7 12.46 18.1938C12.85 18.0625 13.26 18 13.685 18H18.485C18.855 18 19.22 18.05 19.565 18.15H19.56ZM28.16 10C28.16 12.2063 26.725 14 24.96 14C23.195 14 21.76 12.2063 21.76 10C21.76 7.79375 23.195 6 24.96 6C26.725 6 28.16 7.79375 28.16 10ZM16.08 16C13.87 16 12.08 13.7625 12.08 11C12.08 8.2375 13.87 6 16.08 6C18.29 6 20.08 8.2375 20.08 11C20.08 13.7625 18.29 16 16.08 16Z" fill="white"/>
</svg>
