<svg width="32" height="32" viewBox="0 0 32 32" fill="none" xmlns="http://www.w3.org/2000/svg">
<path d="M9.2 5.5C9.2 7.43125 7.945 9 6.4 9C4.855 9 3.6 7.43125 3.6 5.5C3.6 3.56875 4.855 2 6.4 2C7.945 2 9.2 3.56875 9.2 5.5ZM3.2 15.3562C2.7 16.0562 2.4 16.9875 2.4 18C2.4 19.0125 2.7 19.9437 3.2 20.6437V15.3562ZM10.42 12.275C8.935 13.9187 8 16.325 8 19C8 21.1437 8.6 23.1125 9.6 24.6562V26C9.6 27.1063 8.885 28 8 28H4.8C3.915 28 3.2 27.1063 3.2 26V24.325C1.31 23.2 0 20.7938 0 18C0 14.1313 2.505 11 5.6 11H7.2C8.4 11 9.51 11.4688 10.42 12.2688V12.275ZM22.4 26V24.6562C23.4 23.1125 24 21.1437 24 19C24 16.325 23.065 13.9187 21.58 12.2688C22.49 11.4688 23.6 11 24.8 11H26.4C29.495 11 32 14.1313 32 18C32 20.7938 30.69 23.2 28.8 24.325V26C28.8 27.1063 28.085 28 27.2 28H24C23.115 28 22.4 27.1063 22.4 26ZM28.4 5.5C28.4 7.43125 27.145 9 25.6 9C24.055 9 22.8 7.43125 22.8 5.5C22.8 3.56875 24.055 2 25.6 2C27.145 2 28.4 3.56875 28.4 5.5ZM28.8 15.3562V20.65C29.3 19.9438 29.6 19.0188 29.6 18.0063C29.6 16.9938 29.3 16.0625 28.8 15.3625V15.3562ZM16 10C14.235 10 12.8 8.20625 12.8 6C12.8 3.79375 14.235 2 16 2C17.765 2 19.2 3.79375 19.2 6C19.2 8.20625 17.765 10 16 10ZM12 19C12 20.0125 12.3 20.9375 12.8 21.6437V16.3563C12.3 17.0625 12 17.9875 12 19ZM19.2 16.3563V21.65C19.7 20.9438 20 20.0188 20 19.0063C20 17.9938 19.7 17.0625 19.2 16.3625V16.3563ZM22.4 19C22.4 21.7938 21.09 24.2 19.2 25.325V28C19.2 29.1063 18.485 30 17.6 30H14.4C13.515 30 12.8 29.1063 12.8 28V25.325C10.91 24.2 9.6 21.7938 9.6 19C9.6 15.1313 12.105 12 15.2 12H16.8C19.895 12 22.4 15.1313 22.4 19Z" fill="white"/>
</svg>
