<svg width="32" height="32" viewBox="0 0 32 32" fill="none" xmlns="http://www.w3.org/2000/svg">
<path d="M7.20004 0C6.53504 0 6.00004 0.66875 6.00004 1.5V8.88125L4.85004 7.4375C4.38004 6.85 3.62004 6.85 3.15504 7.4375C2.69004 8.025 2.68504 8.975 3.15504 9.55625L6.35504 13.5562C6.82504 14.1437 7.58504 14.1437 8.05004 13.5562L11.25 9.55625C11.72 8.96875 11.72 8.01875 11.25 7.4375C10.78 6.85625 10.02 6.85 9.55504 7.4375L8.40504 8.875V1.5C8.40504 0.66875 7.87004 0 7.20504 0H7.20004ZM18 12.5C18 11.1187 17.105 10 16 10C14.895 10 14 11.1187 14 12.5C14 13.8813 14.895 15 16 15C17.105 15 18 13.8813 18 12.5ZM9.20004 18.5C9.20004 17.1187 8.30504 16 7.20004 16C6.09504 16 5.20004 17.1187 5.20004 18.5C5.20004 19.8813 6.09504 21 7.20004 21C8.30504 21 9.20004 19.8813 9.20004 18.5ZM24.8 21C25.905 21 26.8 19.8813 26.8 18.5C26.8 17.1187 25.905 16 24.8 16C23.695 16 22.8 17.1187 22.8 18.5C22.8 19.8813 23.695 21 24.8 21ZM10 27.5938L11.345 30.7125C11.66 31.4438 12.385 31.7125 12.97 31.325C13.555 30.9375 13.77 30.025 13.46 29.2938L11.645 25.075C11.73 24.9688 11.805 24.85 11.86 24.7125L13.2 21.5938V25C13.2 26.1063 13.915 27 14.8 27H17.2C18.085 27 18.8 26.1063 18.8 25V21.5938L20.145 24.7125C20.205 24.85 20.275 24.9688 20.36 25.075L18.545 29.2938C18.23 30.025 18.45 30.9313 19.035 31.325C19.62 31.7188 20.345 31.4438 20.66 30.7125L22 27.5938V30C22 31.1063 22.715 32 23.6 32H26C26.885 32 27.6 31.1063 27.6 30V27.5938L28.945 30.7125C29.26 31.4438 29.985 31.7125 30.57 31.325C31.155 30.9375 31.37 30.025 31.06 29.2938L29.165 24.9C28.4 23.1187 26.91 22.0063 25.29 22.0063H24.31C23.495 22.0063 22.715 22.2875 22.04 22.7938L20.36 18.9C19.595 17.1187 18.105 16.0063 16.485 16.0063H15.51C13.89 16.0063 12.405 17.1187 11.635 18.9L9.95504 22.7938C9.28004 22.2875 8.50004 22.0063 7.68504 22.0063H6.71004C5.09004 22.0063 3.60504 23.1187 2.83504 24.9L0.945044 29.2875C0.630044 30.0188 0.850044 30.925 1.43504 31.3188C2.02004 31.7125 2.74504 31.4375 3.06004 30.7062L4.40004 27.5938V30C4.40004 31.1063 5.11504 32 6.00004 32H8.40004C9.28504 32 10 31.1063 10 30V27.5938ZM20.75 9.5625L23.95 13.5625C24.42 14.15 25.18 14.15 25.645 13.5625L28.845 9.5625C29.315 8.975 29.315 8.025 28.845 7.44375C28.375 6.8625 27.615 6.85625 27.15 7.44375L26 8.88125V1.5C26 0.66875 25.465 0 24.8 0C24.135 0 23.6 0.66875 23.6 1.5V8.88125L22.45 7.44375C21.98 6.85625 21.22 6.85625 20.755 7.44375C20.29 8.03125 20.285 8.98125 20.755 9.5625H20.75Z" fill="white"/>
</svg>
