<svg width="48" height="41" viewBox="0 0 48 41" fill="none" xmlns="http://www.w3.org/2000/svg">
<g clip-path="url(#clip0_1_411)">
<path d="M22.2371 0.503803C17.2869 1.08339 13.0781 3.86334 11.2757 7.74758C10.5985 9.19634 10.3606 10.2613 10.2141 12.5166C9.98538 15.9465 8.38398 20.5509 6.87448 22.1327C6.16998 22.8766 6.21544 23.323 7.06687 23.8555C8.58595 24.8029 11.5226 25.5861 15.6769 26.1419L17.0768 26.3299L17.7449 26.7919C18.6509 27.4182 19.6296 27.9273 20.4624 28.2092C23.7839 29.3446 27.0776 28.867 30.0698 26.8231L30.7834 26.3295L32.1833 26.1415C36.5386 25.5541 39.8878 24.6223 41.0494 23.6827C41.6443 23.1973 41.6352 22.8291 41.0312 22.2183C40.2535 21.4196 39.1005 19.039 38.4783 16.948C37.9385 15.1314 37.7279 13.9096 37.5633 11.6777C37.4628 10.2605 37.3072 9.54777 36.877 8.43571C36.1997 6.6818 35.1291 5.21707 33.5373 3.86252C31.5793 2.17907 29.3467 1.14524 26.6292 0.652081C25.5676 0.464893 23.2526 0.38625 22.2371 0.503803ZM21.9628 10.4022C22.8501 11.0129 24.9732 12.2188 26.1075 12.7513C29.0719 14.1451 32.3389 15.0381 35.221 15.2416C35.4498 15.2572 35.5048 15.3043 35.578 15.5312C35.7977 16.2361 35.4407 18.0449 34.9927 18.5303C34.819 18.7261 34.773 18.7339 34.2791 18.695C33.7852 18.6479 33.7302 18.6556 33.465 18.8674C33.2544 19.0398 33.1357 19.2668 32.9433 19.8386C32.0373 22.6574 29.942 25.1556 27.5356 26.307C25.5413 27.2622 23.2168 27.3875 21.1492 26.6514C18.4949 25.7036 16.2072 23.3075 15.0911 20.308C14.9083 19.8148 14.7159 19.3057 14.6608 19.1803C14.4871 18.7732 13.7639 18.5381 13.316 18.7417C13.069 18.8592 12.7211 18.4599 12.4741 17.7783C12.3095 17.3318 12.2635 17.0267 12.2635 16.314C12.2635 15.8208 12.2908 15.3272 12.3276 15.2175C12.3827 15.0688 12.6115 14.9279 13.2427 14.6457C15.4572 13.6667 17.6071 11.991 18.7055 10.378C19.0075 9.92378 19.3645 9.28153 19.5655 8.77281C19.6206 8.64747 19.767 8.73349 20.4715 9.29751C20.9377 9.66615 21.6149 10.1593 21.9628 10.4022Z" fill="white"/>
<path d="M18.3848 15.7192C18.0373 16.017 17.9823 16.3222 18.2019 16.6982C18.4125 17.0349 18.6958 17.0975 20.0776 17.0975C21.1937 17.0975 21.3679 17.082 21.5689 16.9411C22.1178 16.5728 22.0906 15.8995 21.5138 15.6021C21.2669 15.4767 21.0472 15.4534 19.9675 15.4534H18.6958L18.3848 15.7192Z" fill="white"/>
<path d="M26.3454 15.6017C26.0161 15.7741 25.8147 16.189 25.9065 16.5024C25.9338 16.6122 26.0894 16.792 26.2358 16.9017C26.4919 17.0898 26.556 17.0975 27.7731 17.0975C29.1548 17.0975 29.4018 17.0426 29.6305 16.706C29.8866 16.3459 29.832 16.0248 29.475 15.7192L29.1639 15.453H27.9013C26.8121 15.453 26.5924 15.4763 26.3454 15.6017Z" fill="white"/>
<path d="M11.2571 27.5202C9.69252 27.99 8.08203 28.5147 7.67044 28.679C6.3988 29.2037 5.38273 29.8299 4.25754 30.8011C2.75665 32.0778 1.82338 33.3541 1.2012 34.9516C0.698193 36.2594 0.588115 36.8075 0.533076 38.452L0.478516 39.9557L0.807792 40.2375L1.12798 40.5115H23.9299H46.7319L47.052 40.2375L47.3813 39.9557L47.3263 38.452C47.2803 37.2384 47.2349 36.7919 47.0516 36.1263C46.4385 33.9337 45.4047 32.3285 43.5654 30.7622C42.4493 29.807 41.3969 29.1725 40.0884 28.6478C39.0728 28.2407 33.7565 26.651 33.4182 26.651C33.2353 26.651 32.9515 26.8235 32.3203 27.3322C30.3623 28.9063 28.6877 29.7284 26.4368 30.2215C25.5586 30.4173 25.2657 30.4407 24.0213 30.4484C21.9902 30.4484 20.7913 30.2133 18.9429 29.4306C17.7809 28.9374 16.7284 28.2952 15.5391 27.3322C14.8164 26.7526 14.6422 26.651 14.3952 26.6588C14.2311 26.6666 12.8216 27.0504 11.2571 27.5202Z" fill="white"/>
</g>
<defs>
<clipPath id="clip0_1_411">
<rect width="47.86" height="40.96" fill="white"/>
</clipPath>
</defs>
</svg>
