<svg width="261" height="156" viewBox="0 0 261 156" fill="none" xmlns="http://www.w3.org/2000/svg">
<g clip-path="url(#clip0_1_2547)">
<path d="M199.828 154.236C196.486 151.413 194.457 146.954 194.989 142.613C195.521 138.272 198.818 134.281 203.094 133.359C207.371 132.437 212.246 134.989 213.544 139.166C214.259 131.114 215.083 122.725 219.365 115.868C223.242 109.659 229.958 105.217 237.236 104.422C244.514 103.627 252.176 106.629 256.715 112.372C261.254 118.115 262.366 126.464 259.187 133.057C256.845 137.914 252.53 141.529 248.01 144.469C233.402 153.892 215.882 157.724 198.674 155.26L199.828 154.236Z" fill="#F2F2F2"/>
<path d="M249.518 106.795C243.513 111.685 238.004 117.154 233.071 123.124C225.35 132.433 219.102 142.871 214.545 154.073C214.211 154.891 215.539 155.246 215.869 154.438C223.325 136.232 235.228 120.185 250.489 107.766C251.174 107.208 250.198 106.242 249.518 106.795Z" fill="white"/>
<path d="M84.0201 153.469C88.6097 149.592 91.3974 143.467 90.6664 137.505C89.9353 131.542 85.4071 126.061 79.5335 124.795C73.6598 123.529 66.9642 127.034 65.1802 132.77C64.1984 121.711 63.067 110.188 57.1857 100.77C51.8603 92.2428 42.6367 86.1409 32.6404 85.0493C22.644 83.9577 12.1192 88.0806 5.88482 95.9685C-0.349529 103.856 -1.87598 115.324 2.49039 124.38C5.70695 131.051 11.633 136.016 17.842 140.055C37.6508 152.941 62.2237 158.315 85.6052 154.875" fill="#F2F2F2"/>
<path d="M15.7701 88.3091C24.0183 95.0256 31.5851 102.538 38.3612 110.736C45.1384 118.926 51.1049 127.754 56.177 137.096C59.0121 142.337 61.559 147.728 63.8062 153.246C64.2643 154.368 62.4412 154.857 61.9881 153.747C58.0077 144.019 53.0833 134.704 47.2854 125.936C41.5156 117.2 34.9118 109.044 27.5667 101.583C23.4123 97.3653 19.0291 93.3788 14.4369 89.642C13.4956 88.8757 14.8366 87.5492 15.7701 88.3092L15.7701 88.3091Z" fill="white"/>
<path d="M187.35 155.659H77.85V43.3385C77.85 19.4415 97.2967 0 121.2 0H144C167.903 0 187.35 19.4415 187.35 43.3385V155.659Z" fill="#F2F2F2"/>
<path d="M164.55 155.659H77.85V43.3385C77.8261 34.1817 80.7264 25.2564 86.1287 17.862C86.3279 17.5906 86.5265 17.3228 86.7313 17.0579C89.3444 13.6316 92.454 10.6141 95.9576 8.10507C96.1555 7.96111 96.3542 7.81965 96.5558 7.67818C99.4875 5.64995 102.659 3.99191 105.997 2.7418C106.196 2.66667 106.398 2.5914 106.599 2.5192C109.619 1.44191 112.749 0.703969 115.932 0.319007C116.129 0.29206 116.332 0.270973 116.534 0.249885C119.636 -0.0816675 122.764 -0.0816675 125.866 0.249885C126.068 0.270973 126.271 0.292057 126.47 0.319296C129.652 0.704283 132.782 1.44213 135.8 2.51921C136.002 2.59141 136.204 2.66668 136.403 2.74195C139.701 3.97629 142.835 5.60959 145.735 7.6054C145.937 7.7438 146.138 7.88526 146.337 8.02673C148.301 9.42818 150.145 10.9895 151.852 12.6947C153.221 14.0624 154.496 15.5204 155.669 17.0588C155.874 17.3228 156.072 17.5906 156.271 17.8616C161.673 25.2561 164.574 34.1816 164.55 43.3385V155.659Z" fill="#CCCCCC"/>
<path d="M157.5 105.422C160.151 105.422 162.3 103.273 162.3 100.623C162.3 97.9729 160.151 95.8245 157.5 95.8245C154.849 95.8245 152.7 97.9729 152.7 100.623C152.7 103.273 154.849 105.422 157.5 105.422Z" fill="#6C63FF"/>
<path d="M178.38 152.294H174.702L172.952 138.112L178.38 138.112L178.38 152.294Z" fill="#FFB8B8"/>
<path d="M172.074 151.244H179.168V155.709H167.608C167.608 155.122 167.724 154.542 167.948 154C168.173 153.458 168.502 152.966 168.916 152.551C169.331 152.137 169.824 151.808 170.365 151.584C170.907 151.359 171.488 151.244 172.074 151.244Z" fill="#2F2E41"/>
<path d="M196.68 152.294H193.002L191.252 138.112L196.68 138.112L196.68 152.294Z" fill="#FFB8B8"/>
<path d="M190.375 151.244H197.468V155.709H185.908C185.908 155.122 186.024 154.542 186.248 154C186.473 153.458 186.802 152.966 187.217 152.551C187.631 152.137 188.124 151.808 188.665 151.584C189.207 151.359 189.788 151.244 190.375 151.244Z" fill="#2F2E41"/>
<path d="M159.929 101.574C159.665 101.184 159.489 100.741 159.414 100.276C159.339 99.811 159.367 99.3352 159.496 98.8822C159.625 98.4291 159.852 98.0099 160.161 97.654C160.469 97.2981 160.852 97.0141 161.282 96.8222L173.785 62.3713L179.937 65.7279L165.662 98.6503C165.937 99.3943 165.929 100.213 165.64 100.952C165.351 101.69 164.801 102.297 164.094 102.658C163.388 103.018 162.574 103.107 161.806 102.907C161.038 102.707 160.37 102.233 159.929 101.574Z" fill="#FFB8B8"/>
<path d="M194.801 108.047C194.392 107.813 194.04 107.492 193.769 107.107C193.497 106.722 193.314 106.282 193.231 105.818C193.148 105.354 193.168 104.878 193.29 104.423C193.411 103.968 193.631 103.545 193.933 103.184L190.06 66.7405L197.061 67.0603L198.671 102.907C199.244 103.455 199.596 104.194 199.66 104.985C199.725 105.775 199.497 106.562 199.02 107.195C198.543 107.829 197.85 108.266 197.072 108.423C196.295 108.58 195.487 108.446 194.801 108.047Z" fill="#FFB8B8"/>
<path d="M183.632 55.9901C187.701 55.9901 191 52.6921 191 48.6238C191 44.5555 187.701 41.2574 183.632 41.2574C179.562 41.2574 176.263 44.5555 176.263 48.6238C176.263 52.6921 179.562 55.9901 183.632 55.9901Z" fill="#FFB8B8"/>
<path d="M194.754 99.759H172.54L172.567 99.5862C172.606 99.3279 176.526 73.6614 173.635 65.2645C173.345 64.4394 173.371 63.5361 173.707 62.7286C174.043 61.9211 174.666 61.2664 175.456 60.8907H175.456C179.587 58.9456 187.518 56.5505 194.212 62.363C195.197 63.2324 195.966 64.319 196.459 65.5369C196.951 66.7547 197.154 68.0704 197.05 69.3799L194.754 99.759Z" fill="#6C63FF"/>
<path d="M176.806 77.4546L166.805 75.4261L171.493 64.3202C171.774 63.2445 172.47 62.324 173.428 61.7605C174.387 61.1971 175.529 61.0367 176.606 61.3146C177.683 61.5924 178.605 62.2858 179.171 63.2427C179.737 64.1996 179.9 65.3419 179.625 66.4189L176.806 77.4546Z" fill="#6C63FF"/>
<path d="M189.615 81.2208L189.014 67.442C188.558 64.8518 190.041 62.4033 192.322 62.003C194.604 61.6043 196.832 63.4007 197.29 66.0099L199.549 78.8848L189.615 81.2208Z" fill="#6C63FF"/>
<path d="M194.015 98.1094C197.589 111.719 197.979 129.022 197.015 147.896L192.215 147.296L183.515 111.306L178.715 147.896L173.315 147.596C171.702 127.793 170.131 110.791 172.715 99.609L194.015 98.1094Z" fill="#2F2E41"/>
<path d="M188.487 54.3167C187.112 55.7806 184.559 54.9947 184.38 52.9949C184.366 52.8396 184.367 52.6834 184.383 52.5283C184.476 51.6425 184.988 50.8383 184.865 49.9029C184.837 49.6702 184.751 49.4483 184.613 49.2584C183.518 47.792 180.946 49.9143 179.913 48.5868C179.279 47.7729 180.024 46.4912 179.537 45.5815C178.895 44.3807 176.994 44.9731 175.801 44.3155C174.474 43.5838 174.554 41.5486 175.427 40.3107C176.492 38.8011 178.36 37.9955 180.204 37.8794C182.048 37.7633 183.88 38.2617 185.602 38.9325C187.558 39.6947 189.498 40.7481 190.702 42.4679C192.166 44.5593 192.307 47.3709 191.575 49.8164C191.129 51.304 189.609 53.1213 188.487 54.3167Z" fill="#2F2E41"/>
<path d="M251.995 155.852H30.5063C30.4118 155.851 30.3212 155.814 30.2544 155.747C30.1876 155.68 30.1501 155.589 30.1501 155.494C30.1501 155.4 30.1876 155.309 30.2544 155.242C30.3212 155.175 30.4118 155.138 30.5063 155.137H251.995C252.089 155.138 252.18 155.175 252.246 155.242C252.313 155.309 252.351 155.4 252.351 155.494C252.351 155.589 252.313 155.68 252.246 155.747C252.18 155.814 252.089 155.851 251.995 155.852Z" fill="#3F3D56"/>
<path d="M140.7 123.117H101.7C101.186 123.12 100.693 122.919 100.327 122.558C99.9615 122.197 99.754 121.707 99.75 121.193V34.1654C99.754 33.652 99.9615 33.161 100.327 32.8003C100.693 32.4396 101.186 32.2386 101.7 32.2414H140.7C141.214 32.2386 141.707 32.4396 142.073 32.8003C142.439 33.161 142.646 33.652 142.65 34.1654V121.193C142.646 121.707 142.439 122.197 142.073 122.558C141.707 122.919 141.214 123.12 140.7 123.117Z" fill="white"/>
<path d="M142.65 60.4008H99.75V61.0006H142.65V60.4008Z" fill="#CCCCCC"/>
<path d="M142.8 94.6248H99.9V95.2246H142.8V94.6248Z" fill="#CCCCCC"/>
<path d="M113.85 32.2415H113.25V123.417H113.85V32.2415Z" fill="#CCCCCC"/>
<path d="M128.85 32.2415H128.25V123.417H128.85V32.2415Z" fill="#CCCCCC"/>
</g>
<defs>
<clipPath id="clip0_1_2547">
<rect width="261" height="156" fill="white"/>
</clipPath>
</defs>
</svg>
