<svg width="322" height="224" viewBox="0 0 322 224" fill="none" xmlns="http://www.w3.org/2000/svg">
<path d="M40.0428 199.258L45.0143 199.376L43.1365 214.511L39.7677 214.431L40.0428 199.258Z" fill="#FFB6B6"/>
<path d="M51.3256 221.46C51.3256 221.049 51.1118 220.677 50.7816 220.514L47.0713 218.681L44.5416 212.814L44.5033 206.903L39.2908 206.29L38.5369 210.056C38.5369 210.056 40.0891 209.824 38.1727 211.488C36.2564 213.152 37.1791 216.406 37.1791 216.406L36.7612 222.49H40.2107L40.3958 218.707C43.0787 219.845 43.7368 222.49 43.7368 222.49H50.4235C50.9217 222.49 51.3256 222.029 51.3256 221.46Z" fill="#2F2E41"/>
<path d="M47.325 199.425L52.2965 199.543L50.4187 214.677L47.0499 214.598L47.325 199.425Z" fill="#FFB6B6"/>
<path d="M58.6079 221.626C58.6079 221.215 58.394 220.844 58.0638 220.68L54.3535 218.848L51.8239 212.981L51.7855 207.07L46.573 206.457L45.8191 210.222C45.8191 210.222 47.3713 209.991 45.4549 211.655C43.5386 213.318 44.4613 216.573 44.4613 216.573L44.0434 222.657H47.4929L47.678 218.873C50.3609 220.012 51.019 222.657 51.019 222.657H57.7058C58.204 222.657 58.6079 222.195 58.6079 221.626Z" fill="#2F2E41"/>
<path d="M41.6237 110.651L35.9878 124.108C34.1091 128.594 33.5137 133.514 34.2681 138.318L37.0073 204.429H47.8373L52.5645 145.557L53.4974 168.812L42.6557 201.945H53.3188L67.0058 168.812L68.0205 143.3L63.158 123.502L41.6237 110.651Z" fill="#2F2E41"/>
<path d="M194.31 53.0685V19.4546C194.31 8.71014 185.6 2.71302e-09 174.855 2.71302e-09H103.638C92.8936 -0.000177498 84.1833 8.70983 84.1831 19.4543V203.862C84.1831 214.607 92.8932 223.317 103.638 223.317H174.854C185.599 223.317 194.309 214.607 194.309 203.862V76.9954C194.985 76.9954 195.534 76.4468 195.534 75.77L195.535 54.2939C195.535 53.6171 194.986 53.0685 194.31 53.0685Z" fill="#3F3D56"/>
<path d="M190.656 204.85C179.287 204.152 185.07 219.133 175.906 219.603H103.228C95.0789 219.605 88.4711 213 88.4687 204.85V17.8371C88.4711 9.68791 95.0786 3.08329 103.228 3.08433H108.588C107.128 6.67381 118.908 7.84164 119.811 7.84278H157.033C160.908 7.83787 170.256 3.92089 169.916 3.08433H175.904C184.05 3.08573 190.653 9.68821 190.656 17.8342V204.85Z" fill="white"/>
<path d="M83.6104 57.1858C83.0921 57.1858 82.6706 57.6073 82.6706 58.1256V65.6439C82.6706 66.1622 83.0921 66.5837 83.6104 66.5837C84.1287 66.5837 84.5501 66.1622 84.5501 65.6439V58.1256C84.5501 57.6073 84.1287 57.1858 83.6104 57.1858Z" fill="#3F3D56"/>
<path d="M83.6103 79.7407C83.092 79.7407 82.6706 80.1622 82.6706 80.6805V95.2471C82.6706 95.7654 83.092 96.1869 83.6103 96.1869C84.1286 96.1869 84.5501 95.7654 84.5501 95.2471V80.6805C84.5501 80.1622 84.1286 79.7407 83.6103 79.7407Z" fill="#3F3D56"/>
<path d="M83.6103 100.416C83.092 100.416 82.6706 100.837 82.6706 101.356V115.922C82.6706 116.441 83.092 116.862 83.6103 116.862C84.1286 116.862 84.5501 116.441 84.5501 115.922V101.356C84.5501 100.837 84.1286 100.416 83.6103 100.416Z" fill="#3F3D56"/>
<path d="M305.274 211.43L300.815 214.485L286.909 198.737L293.491 194.229L305.274 211.43Z" fill="#FFB6B6"/>
<path d="M289.927 221.796C289.948 222.125 290.392 222.93 290.578 223.202C291.151 224.038 292.293 224.251 293.128 223.679L306.939 214.217C307.509 213.827 307.655 213.048 307.264 212.477L306.87 211.902C306.87 211.902 306.369 209.706 303.503 208.54C303.503 208.54 302.898 211.405 298.496 210.583L296.77 209.715L293.988 217.613L291.158 220.111C290.538 220.658 289.873 220.972 289.927 221.796Z" fill="#2F2E41"/>
<path d="M272.395 219.54L266.989 219.539L264.418 198.689L271.034 199.513L272.395 219.54Z" fill="#FFB6B6"/>
<path d="M253.874 219.417C253.706 219.701 253.617 220.616 253.617 220.945C253.617 221.958 254.439 222.78 255.452 222.78H272.192C272.884 222.78 273.444 222.219 273.444 221.528V220.831C273.444 220.831 274.272 218.737 272.567 216.155C272.567 216.155 270.448 218.176 267.282 215.01L266.348 213.318L259.589 218.262L255.842 218.723C255.023 218.824 254.296 218.707 253.874 219.417Z" fill="#2F2E41"/>
<path d="M253.442 140.303L253.849 145.219L253.039 149.129L254.513 153.251L256.316 175.046L265.714 212.623L272.89 214.133L269.445 176.599L272.117 145.639L253.442 140.303Z" fill="#2F2E41"/>
<path d="M283.934 118.957L256.491 119.338L253.442 140.301L272.117 149.068L271.521 179.007L292.32 209.114L303.397 202.786L284.835 177.218L290.033 134.584L283.934 118.957Z" fill="#2F2E41"/>
<path d="M263.62 69.6733L258.778 75.887L261.065 123.531L278.979 123.15L282.028 81.6044L278.217 70.9321L276.838 68.5404L275.188 65.4436L264.614 66.1989L263.62 69.6733Z" fill="#E6E6E6"/>
<path d="M256.47 99.1372L257.438 108.874L256.249 120.079L254.762 123.117L251.363 135.202C251.363 135.202 247.894 140.487 255.517 140.867C263.14 141.247 288.127 138.775 288.127 138.775C288.127 138.775 291.242 138.698 289.884 132.181C287.691 128.412 289.105 123.101 289.105 123.101L286.221 112.475L286.983 102.565L292.32 76.6468C287.58 72.9225 282.272 70.2569 276.502 68.4516L271.448 81.7415L263.923 69.5952L261.064 71.6915C257.208 72.7026 253.815 74.2573 251.132 76.6464L256.47 99.1372Z" fill="#2F2E41"/>
<path d="M165.999 76.0196H112.207C108.52 76.0154 105.532 73.0274 105.528 69.3402V46.218C105.532 42.5309 108.52 39.5429 112.207 39.5387C129.372 34.7832 147.374 35.2288 165.999 39.5387C169.686 39.5431 172.674 42.531 172.678 46.218V69.3402C172.674 73.0273 169.686 76.0152 165.999 76.0196Z" fill="#F2F2F2"/>
<path d="M171.479 100.252H106.727C106.065 100.252 105.529 99.7153 105.528 99.0533V82.9915C105.529 82.3296 106.065 81.7932 106.727 81.7924H171.479C172.141 81.7932 172.677 82.3296 172.678 82.9915V99.0537C172.677 99.7156 172.141 100.252 171.479 100.252ZM106.727 82.272C106.33 82.2724 106.008 82.5943 106.008 82.9914V99.0537C106.008 99.4509 106.33 99.7728 106.727 99.7732H171.479C171.876 99.7728 172.198 99.4509 172.199 99.0537V82.9914C172.198 82.5943 171.876 82.2724 171.479 82.272H106.727Z" fill="#E6E6E6"/>
<path d="M126.752 87.6634C126.289 87.6732 125.921 88.057 125.931 88.5205C125.94 88.9703 126.302 89.3326 126.752 89.3421H166.323C166.786 89.3599 167.176 88.9986 167.194 88.5353C167.212 88.0719 166.85 87.6819 166.387 87.6642L126.752 87.6634Z" fill="#E6E6E6"/>
<path d="M126.752 92.7011C126.289 92.7109 125.921 93.0947 125.931 93.5582C125.94 94.008 126.302 94.3703 126.752 94.3798H166.323C166.786 94.3976 167.176 94.0363 167.194 93.573C167.212 93.1096 166.85 92.7196 166.387 92.7019L126.752 92.7011Z" fill="#E6E6E6"/>
<path d="M115.637 94.3806C117.491 94.3806 118.994 92.8773 118.994 91.0228C118.994 89.1684 117.491 87.6651 115.637 87.6651C113.782 87.6651 112.279 89.1684 112.279 91.0228C112.279 92.8773 113.782 94.3806 115.637 94.3806Z" fill="#E6E6E6"/>
<path d="M171.479 179.091H106.727C106.065 179.091 105.529 178.554 105.528 177.892V161.83C105.529 161.168 106.065 160.632 106.727 160.631H171.479C172.141 160.632 172.677 161.168 172.678 161.83V177.893C172.677 178.554 172.141 179.09 171.479 179.091ZM106.727 161.111C106.33 161.111 106.008 161.433 106.008 161.83V177.893C106.008 178.29 106.33 178.612 106.727 178.612L164.124 178.046C164.521 178.046 170.543 175.8 170.544 175.403L172.199 161.83C172.198 161.433 171.876 161.111 171.479 161.111H106.727Z" fill="#E6E6E6"/>
<path d="M126.752 168.897C126.289 168.887 125.905 169.255 125.895 169.718C125.885 170.182 126.253 170.566 126.717 170.575C126.729 170.576 126.74 170.576 126.752 170.575H166.323C166.786 170.593 167.176 170.232 167.194 169.769C167.211 169.305 166.85 168.915 166.387 168.898L126.752 168.897Z" fill="#E6E6E6"/>
<path d="M115.637 173.219C117.491 173.219 118.994 171.716 118.994 169.862C118.994 168.007 117.491 166.504 115.637 166.504C113.782 166.504 112.279 168.007 112.279 169.862C112.279 171.716 113.782 173.219 115.637 173.219Z" fill="#E6E6E6"/>
<path d="M171.479 145.857H106.727C106.065 145.857 105.529 145.32 105.528 144.658V128.596C105.529 127.934 106.065 127.398 106.727 127.397H171.479C172.141 127.398 172.677 127.934 172.678 128.596V144.659C172.677 145.32 172.141 145.856 171.479 145.857ZM106.727 127.877C106.33 127.877 106.008 128.199 106.008 128.596V144.659C106.008 145.056 106.33 145.378 106.727 145.378L164.124 144.812C164.521 144.812 170.543 142.566 170.544 142.169L172.199 128.596C172.198 128.199 171.876 127.877 171.479 127.877H106.727Z" fill="#E6E6E6"/>
<path d="M126.752 135.663C126.289 135.653 125.905 136.021 125.895 136.484C125.885 136.948 126.253 137.332 126.717 137.341C126.729 137.342 126.74 137.342 126.752 137.341H166.323C166.786 137.359 167.176 136.998 167.194 136.535C167.211 136.071 166.85 135.681 166.387 135.663L126.752 135.663Z" fill="#E6E6E6"/>
<path d="M115.637 139.985C117.491 139.985 118.994 138.482 118.994 136.628C118.994 134.773 117.491 133.27 115.637 133.27C113.782 133.27 112.279 134.773 112.279 136.628C112.279 138.482 113.782 139.985 115.637 139.985Z" fill="#E6E6E6"/>
<path d="M268.958 65.003C274.183 65.003 278.418 60.7675 278.418 55.5428C278.418 50.3181 274.183 46.0827 268.958 46.0827C263.733 46.0827 259.498 50.3181 259.498 55.5428C259.498 60.7675 263.733 65.003 268.958 65.003Z" fill="#FFB6B6"/>
<path d="M275.906 63.3157C276.427 63.4045 277.039 62.1415 277.624 60.9113C278.847 58.3362 279.625 56.6992 279.684 54.3853C279.735 52.4131 279.187 52.9307 278.654 48.5462C278.478 47.1 276.008 47.1028 275.505 46.4161C274.655 45.2562 275.958 44.7778 273.845 44.081C269.887 42.7758 268.097 44.8033 265.583 44.978C265.52 44.9824 264.274 46.2011 263.578 46.2642C262.358 46.3746 260.599 46.1846 259.81 44.3268C259.073 42.5897 258.585 47.6659 259.244 48.2941C259.803 48.8275 260.769 50.1662 260.793 50.2636C260.821 50.3738 258.498 47.8004 258.11 48.8608C257.831 49.6241 258.71 53.5507 259.419 53.6983C260.013 53.8217 261.464 51.8656 261.137 52.6679C260.377 54.5284 264.944 55.7156 270.411 51.9809C270.604 51.8485 270.421 52.0597 271.097 53.6983C271.95 55.765 272.143 55.8769 272.128 56.4461C272.096 57.6783 271.171 58.0411 271.441 58.8505C271.66 59.506 272.516 60.0134 273.158 59.8809C273.883 59.7313 274.008 58.8345 274.532 58.8505C274.982 58.8641 275.515 59.5411 275.563 60.2244C275.663 61.6638 273.532 62.0597 273.158 64.0026C272.948 65.0991 275.427 63.234 275.906 63.3157Z" fill="#2F2E41"/>
<path d="M297.315 138.933C297.356 137.874 297.143 136.82 296.693 135.86L297.667 124.82L292.399 124.51L291.978 135.745C291.481 136.681 291.215 137.723 291.203 138.783C291.137 141.435 292.452 143.619 294.139 143.661C295.826 143.703 297.248 141.588 297.314 138.936L297.315 138.933Z" fill="#FFB6B6"/>
<path d="M286.108 94.4151L290.262 107.256L291.455 133.481L298.409 133.338L298.948 104.612C298.948 104.612 295.483 83.3854 294.322 78.6144C293.162 73.8435 282.461 75.6116 282.461 75.6116L286.108 94.4151Z" fill="#2F2E41"/>
<path d="M113.797 60.9378C115.761 61.5901 117.821 62.2504 119.918 62.139C120.872 62.0883 121.79 61.8607 122.656 61.4559C123.544 61.0407 124.355 60.4769 125.254 60.0836C128.557 58.638 131.832 61.1075 134.912 62.0344C136.449 62.4969 138.065 62.6075 139.569 61.9634C141.229 61.2518 142.482 59.8938 143.85 58.7599C146.916 56.2177 150.916 54.8471 154.895 54.9507C159.261 55.0644 163.486 56.9925 166.492 60.1463C166.744 60.4108 167.144 60.0098 166.893 59.7458C164.266 56.9895 160.726 55.1313 156.956 54.5682C153.178 54.0039 149.256 54.7579 145.935 56.6392C144.254 57.5912 142.906 58.8943 141.425 60.1105C139.983 61.2948 138.38 62.058 136.479 61.8063C133.204 61.3726 130.387 58.849 126.99 59.0778C124.821 59.2239 123.271 60.8561 121.23 61.3764C118.795 61.9972 116.249 61.1558 113.947 60.3916C113.601 60.2764 113.452 60.8233 113.797 60.9378Z" fill="#3F3D56"/>
<path d="M119.946 63.9563C121.104 63.9563 122.044 63.0168 122.044 61.858C122.044 60.6992 121.104 59.7597 119.946 59.7597C118.787 59.7597 117.847 60.6992 117.847 61.858C117.847 63.0168 118.787 63.9563 119.946 63.9563Z" fill="#6FB3E0"/>
<path d="M138.06 64.0492C139.219 64.0492 140.158 63.1098 140.158 61.9509C140.158 60.7921 139.219 59.8526 138.06 59.8526C136.901 59.8526 135.961 60.7921 135.961 61.9509C135.961 63.1098 136.901 64.0492 138.06 64.0492Z" fill="#6FB3E0"/>
<path d="M156.456 56.9314C157.614 56.9314 158.554 55.992 158.554 54.8331C158.554 53.6743 157.614 52.7349 156.456 52.7349C155.297 52.7349 154.357 53.6743 154.357 54.8331C154.357 55.992 155.297 56.9314 156.456 56.9314Z" fill="#6FB3E0"/>
<path d="M34.7016 127.63C28.4978 145.294 36.4021 159.21 34.7618 150.233C33.3909 142.731 56.7502 119.901 63.7814 124.609C63.6342 123.847 59.165 110.111 58.7269 110.048C59.3398 108.504 58.4855 108.49 58.4508 107.699C58.3178 104.644 59.0278 101.474 60.4108 98.2102C61.3172 95.689 61.3331 93.5227 60.4547 91.776C59.6988 90.3404 58.429 89.2429 56.899 88.703L52.2915 83.1386C51.0913 81.6902 49.3212 78.5651 47.4405 78.5768L37.3445 78.2161C37.056 78.0428 33.5109 81.0913 30.0591 82.5872C26.3153 84.2111 27.0876 88.6433 27.0971 88.7L27.1058 88.7529L27.1469 88.7906L32.6498 104.988L37.6217 109.647C37.3698 110.378 37.4329 110.926 37.9046 111.241C37.2274 111.741 34.2152 126.727 34.7016 127.252L34.7016 127.63Z" fill="#6FB3E0"/>
<path d="M86.5786 95.5746C85.8279 95.8742 85.1599 96.3492 84.6303 96.9598L76.6352 99.7005L78.0507 103.467L86.0084 100.281C86.8148 100.337 87.623 100.2 88.3653 99.8799C90.2336 99.1046 91.3489 97.5123 90.8549 96.3235C90.3609 95.1346 88.4469 94.7992 86.5786 95.5746Z" fill="#FFB6B6"/>
<path d="M43.9297 83.4882L62.1689 108.108L83.5486 102.22L82.6192 96.6429L66.339 99.7265L57.2566 85.7636C54.2909 80.0308 48.4454 78.8766 43.9297 83.4882Z" fill="#6FB3E0"/>
<path d="M174.927 207.633H166.604C165.15 207.633 163.967 206.45 163.967 204.996C162.39 200.71 162.191 196.864 163.967 193.652C163.967 192.198 165.15 191.016 166.604 191.016C169.065 189.23 171.934 189.773 174.927 191.016C176.381 191.016 177.563 192.198 177.563 193.652C176.553 197.287 176.626 201.079 177.563 204.996C177.563 206.45 176.381 207.633 174.927 207.633Z" fill="#6FB3E0"/>
<path d="M174.122 196.065H167.4C167.168 196.065 166.98 195.876 166.98 195.644C166.98 195.412 167.168 195.224 167.4 195.224H174.122C174.354 195.224 174.542 195.412 174.542 195.644C174.542 195.876 174.354 196.065 174.122 196.065Z" fill="white"/>
<path d="M174.122 199.425H167.4C167.168 199.425 166.98 199.237 166.98 199.005C166.98 198.773 167.168 198.585 167.4 198.585H174.122C174.354 198.585 174.542 198.773 174.542 199.005C174.542 199.237 174.354 199.425 174.122 199.425Z" fill="white"/>
<path d="M174.122 202.786H167.4C167.168 202.786 166.98 202.598 166.98 202.366C166.98 202.134 167.168 201.945 167.4 201.945H174.122C174.354 201.945 174.542 202.134 174.542 202.366C174.542 202.598 174.354 202.786 174.122 202.786Z" fill="white"/>
<path d="M321.402 222.906H0V223.542H321.402V222.906Z" fill="#E6E6E6"/>
<path d="M250.843 138.053C251.116 140.691 252.699 142.689 254.378 142.515C256.057 142.341 257.196 140.061 256.923 137.423C256.829 136.367 256.483 135.349 255.914 134.454L254.616 123.287L249.388 124.007L251.222 134.938C250.849 135.93 250.719 136.997 250.842 138.05L250.843 138.053Z" fill="#FFB6B6"/>
<path d="M258.536 92.7921L260.703 73.7611C260.703 73.7611 249.897 72.8346 249.113 77.6816C248.328 82.5286 246.532 103.961 246.532 103.961L249.314 132.558L256.258 132.156L255.398 105.918L258.536 92.7921Z" fill="#2F2E41"/>
<path d="M49.7927 76.1201L35.1926 77.4495L34.7618 62.2751L50.6675 61.8234L49.7927 76.1201Z" fill="#2F2E41"/>
<path d="M42.4098 74.0832C46.6415 74.0832 50.0719 70.6528 50.0719 66.4211C50.0719 62.1894 46.6415 58.759 42.4098 58.759C38.1781 58.759 34.7477 62.1894 34.7477 66.4211C34.7477 70.6528 38.1781 74.0832 42.4098 74.0832Z" fill="#FFB6B6"/>
<path d="M48.5734 58.9553C48.5194 57.0541 46.1538 56.8483 44.3106 56.3791L42.6392 55.5117C40.9986 55.094 39.258 55.3878 37.8454 56.3206L33.3886 59.0205C31.3874 60.342 31.0695 62.4779 30.2558 64.7337L28.7829 68.0358C27.9818 70.2565 29.0404 73.1989 29.8502 75.4164L30.1895 76.3456L29.6589 79.3867L38.9466 78.9529L39.7722 74.2582L38.1868 72.4761C37.6243 71.8438 37.5786 70.9049 38.0772 70.221C39.8706 67.7609 39.5382 64.3134 39.5382 64.3134L41.8078 65.5515C43.299 65.7549 44.6279 65.7326 45.7972 65.4883C47.0832 65.2195 48.176 64.6822 49.0792 63.8812L49.8884 66.6028C50.0968 69.9901 49.4639 70.8891 46.4447 74.2025L51.7392 77.5264L51.5434 75.7276C51.0776 71.4487 52.4977 68.0744 52.2986 64.5918C52.1609 62.1837 50.7288 60.0382 48.5734 58.9553Z" fill="#2F2E41"/>
<path d="M49.8416 123.563C49.0936 123.257 48.2831 123.134 47.4779 123.205L39.824 119.621L38.225 123.312L46.1611 126.551C46.7019 127.152 47.3786 127.615 48.1348 127.901C50.0171 128.641 51.9255 128.271 52.3964 127.073C52.8673 125.875 51.7239 124.304 49.8416 123.563Z" fill="#FFB6B6"/>
<path d="M27.5702 85.2355L23.5787 115.614L43.0447 126.236L46.2519 121.58L32.4016 112.485L35.5727 96.1324C37.4236 89.9489 34.022 85.057 27.5702 85.2355Z" fill="#6FB3E0"/>
</svg>
