<svg width="271" height="204" viewBox="0 0 271 204" fill="none" xmlns="http://www.w3.org/2000/svg">
<path d="M0 123.758C0 124.003 0.196315 124.199 0.440781 124.199H270.559C270.804 124.199 271 124.003 271 123.758C271 123.514 270.804 123.318 270.559 123.318H0.440781C0.196315 123.318 0 123.514 0 123.758Z" fill="#3F3D56"/>
<path d="M172.964 30.2257L174.382 48.3564L194.922 39.777L183.335 21.3364L172.964 30.2257Z" fill="#A0616A"/>
<path d="M172.349 35.7494C180.805 35.7494 187.66 28.8943 187.66 20.4382C187.66 11.982 180.805 5.12696 172.349 5.12696C163.893 5.12696 157.038 11.982 157.038 20.4382C157.038 28.8943 163.893 35.7494 172.349 35.7494Z" fill="#A0616A"/>
<path d="M143.704 163.194L146.297 186.45L128.148 183.936L134.074 162.453L143.704 163.194Z" fill="#A0616A"/>
<path d="M214.448 166.528L217.04 189.783L198.891 187.269L204.818 165.787L214.448 166.528Z" fill="#A0616A"/>
<path d="M171.298 96.3395C171.05 96.3395 151.243 97.334 138.157 97.9925C131.963 98.3041 127.248 103.665 127.729 109.848L132.407 170.046L145.741 170.417L146.066 121.896L172.409 123.378L171.298 96.3395Z" fill="#2F2E41"/>
<path d="M229.448 95.9691C229.448 95.9691 232.782 121.526 230.189 124.118C227.596 126.711 146.297 122.081 146.297 122.081C146.297 122.081 164.132 96.3258 167.344 95.5919C170.557 94.858 221.67 92.2653 221.67 92.2653L229.448 95.9691Z" fill="#2F2E41"/>
<path d="M124.126 63.7928C121.03 59.4627 120.755 54.3553 123.511 52.3854C126.267 50.4155 131.01 52.329 134.106 56.6611C135.367 58.3746 136.199 60.3651 136.533 62.466L149.419 80.9784L142.086 86.0557L128.835 67.9682C126.955 66.9724 125.34 65.5407 124.126 63.7928Z" fill="#A0616A"/>
<path d="M172.224 41.7076L191.113 33.9295L226.67 88.7466C226.67 88.7466 201.854 94.3024 193.336 95.4135C184.817 96.5247 175.187 92.0801 175.187 92.0801L172.224 41.7076Z" fill="#6FB3E0"/>
<path d="M195.187 50.9673L188.335 29.5928L197.225 36.337C197.225 36.337 222.411 53.0044 222.411 60.0417C222.411 67.079 230.189 88.5614 230.189 88.5614C230.189 88.5614 238.893 95.7839 235.93 102.451C232.967 109.118 239.819 108.192 240.56 113.007C241.3 117.822 230.004 124.304 230.004 124.304C230.004 124.304 227.226 97.0803 218.337 97.0803C209.447 97.0803 195.187 50.9673 195.187 50.9673Z" fill="#3F3D56"/>
<path d="M173.551 41.1611L164.26 44.8559C164.26 44.8559 165.742 70.7829 167.223 73.0052C168.705 75.2275 173.89 87.0799 173.89 87.0799V90.9426C173.89 90.9426 163.52 94.1172 163.89 95.9691C164.26 97.821 188.335 103.006 188.335 103.006C188.335 103.006 183.52 88.191 180.557 83.376C177.594 78.561 173.551 41.1611 173.551 41.1611Z" fill="#3F3D56"/>
<path d="M167.594 44.8559C167.594 44.8559 156.853 43.3744 155.001 55.9675C153.149 68.5606 154.326 70.2273 154.326 70.2273L151.297 77.4498L141.296 66.3383L131.666 72.6348C131.666 72.6348 149.074 100.784 156.112 100.043C163.149 99.3026 173.52 78.9314 173.52 78.9314L167.594 44.8559Z" fill="#3F3D56"/>
<path d="M221.24 100.058L215.744 177.824L201.484 177.269C201.484 177.269 198.336 103.747 198.336 102.636C198.336 101.525 199.817 95.2283 209.077 94.8579C218.337 94.4876 221.24 100.058 221.24 100.058Z" fill="#2F2E41"/>
<path d="M200.558 179.306C200.558 179.306 207.966 177.084 209.077 178.565C210.188 180.047 216.485 180.787 216.485 180.787L218.337 198.936C218.337 198.936 213.151 202.64 212.41 203.381C211.67 204.122 192.039 204.862 191.669 200.418C191.298 195.973 196.854 190.417 196.854 190.417L200.558 179.306Z" fill="#2F2E41"/>
<path d="M146.111 174.12C146.111 174.12 148.334 172.269 149.074 177.454C149.815 182.639 152.408 191.158 148.704 192.269C145 193.38 107.962 193.751 107.962 190.417V187.084L111.295 184.491L117.964 183.429C117.964 183.429 130.926 171.528 132.407 171.528C133.889 171.528 138.704 176.343 138.704 176.343L146.111 174.12Z" fill="#2F2E41"/>
<path d="M187.409 28.7441C187.409 28.7441 180.002 19.8549 177.039 20.5957C174.076 21.3364 175.927 22.4476 175.927 22.4476L168.52 14.2991C168.52 14.2991 162.594 12.0768 157.038 19.1141C157.038 19.1141 153.704 13.1879 157.038 9.85447C160.371 6.521 161.482 6.89139 162.223 5.03946C162.964 3.18753 168.149 1.70599 168.149 1.70599C168.149 1.70599 167.852 -0.959618 169.482 0.373184C171.112 1.70599 175.184 1.70599 175.184 1.70599C175.184 1.70599 175.207 0.224449 176.864 1.70599C178.52 3.18753 180.372 2.44676 180.372 2.44676C180.372 2.44676 180.372 5.0103 181.668 5.02488C182.965 5.03946 185.187 3.18753 185.557 4.66908C185.928 6.15062 188.521 6.89139 188.891 11.336C189.261 15.7806 187.409 28.7441 187.409 28.7441Z" fill="#2F2E41"/>
<path d="M127.04 66.243L84.7288 95.4394C83.2687 96.4469 81.2612 96.0787 80.2537 94.6186L68.3415 77.3554C67.3339 75.8953 67.7022 73.8878 69.1623 72.8803L111.474 43.6839C112.934 42.6764 114.941 43.0446 115.949 44.5046L127.861 61.7679C128.869 63.228 128.5 65.2355 127.04 66.243Z" fill="white"/>
<path d="M115.871 44.5584L127.783 61.8215C128.763 63.2419 128.407 65.1851 126.987 66.1652L106.221 80.4939C100.745 78.9975 95.7478 75.6364 92.2716 70.5987C89.9946 67.2989 88.6222 63.6458 88.0987 59.9284L111.527 43.7617C112.948 42.7816 114.891 43.138 115.871 44.5584Z" fill="#E6E6E6"/>
<path d="M82.9071 96.3777C81.7667 96.3777 80.6443 95.8366 79.9488 94.8292L68.0364 77.5658C67.4931 76.778 67.2891 75.8249 67.4624 74.8812C67.6353 73.9375 68.1644 73.1186 68.9522 72.5754L111.263 43.3789C112.892 42.2558 115.13 42.6667 116.254 44.294L128.166 61.5575C128.709 62.3453 128.913 63.2984 128.74 64.2421C128.567 65.1854 128.038 66.0046 127.251 66.5479L84.9392 95.7444C84.3185 96.1722 83.6092 96.3777 82.9071 96.3777ZM113.296 43.486C112.739 43.486 112.177 43.6491 111.684 43.9888L69.3729 73.1852C68.7479 73.616 68.3283 74.266 68.1908 75.0151C68.0534 75.7638 68.2151 76.5205 68.6462 77.1448L80.5586 94.4082C81.4498 95.6995 83.2262 96.0261 84.5182 95.1345L126.83 65.9381C127.455 65.5073 127.874 64.8573 128.012 64.1082C128.149 63.3595 127.987 62.6028 127.556 61.9785L115.644 44.7151C115.092 43.9157 114.201 43.486 113.296 43.486Z" fill="#3F3D56"/>
<path d="M83.2133 87.7581C82.1409 88.4981 81.8705 89.9725 82.6105 91.0448C83.3504 92.1171 84.8248 92.3875 85.8971 91.6476L90.2534 88.6416C91.3257 87.9017 91.5961 86.4273 90.8562 85.355C90.1162 84.2826 88.6418 84.0122 87.5695 84.7522L83.2133 87.7581Z" fill="#6FB3E0"/>
<path d="M86.166 63.6734C84.4741 64.8409 84.0475 67.1672 85.2149 68.8591C86.3824 70.5511 88.7086 70.9776 90.4005 69.8101L97.1769 65.1342C98.8689 63.9667 99.2955 61.6406 98.1281 59.9486C96.9606 58.2567 94.6343 57.83 92.9424 58.9975L86.166 63.6734Z" fill="#6FB3E0"/>
<path d="M126.027 68.8209H74.6201C72.8461 68.8209 71.4029 67.3777 71.4029 65.6038V44.6294C71.4029 42.8555 72.8461 41.4123 74.6201 41.4123H126.027C127.801 41.4123 129.244 42.8555 129.244 44.6294V65.6038C129.244 67.3777 127.801 68.8209 126.027 68.8209Z" fill="white"/>
<path d="M129.15 44.6295V65.6037C129.15 67.3294 127.753 68.7264 126.027 68.7264H100.798C97.1404 64.3844 94.9364 58.7799 94.9364 52.6593C94.9364 48.6501 95.8815 44.8639 97.562 41.5069H126.027C127.753 41.5069 129.15 42.9038 129.15 44.6295Z" fill="#E6E6E6"/>
<path d="M126.027 69.1913H74.6201C72.642 69.1913 71.0324 67.582 71.0324 65.6039V44.6293C71.0324 42.6512 72.642 41.042 74.6201 41.042H126.027C128.005 41.042 129.615 42.6512 129.615 44.6293V65.6039C129.615 67.582 128.005 69.1913 126.027 69.1913ZM74.6201 41.7827C73.0503 41.7827 71.7731 43.0595 71.7731 44.6293V65.6039C71.7731 67.1737 73.0503 68.4505 74.6201 68.4505H126.027C127.597 68.4505 128.874 67.1737 128.874 65.6039V44.6293C128.874 43.0595 127.597 41.7827 126.027 41.7827H74.6201Z" fill="#3F3D56"/>
<path d="M77.7352 61.6379C76.4323 61.6379 75.3724 62.6979 75.3724 64.0008C75.3724 65.3036 76.4323 66.3636 77.7352 66.3636H83.0279C84.3307 66.3636 85.3907 65.3036 85.3907 64.0008C85.3907 62.6979 84.3307 61.6379 83.0279 61.6379H77.7352Z" fill="#6FB3E0"/>
<path d="M93.8442 43.4916C91.7886 43.4916 90.1163 45.164 90.1163 47.2197C90.1163 49.2753 91.7886 50.9476 93.8442 50.9476H102.077C104.133 50.9476 105.805 49.2753 105.805 47.2197C105.805 45.164 104.133 43.4916 102.077 43.4916H93.8442Z" fill="#6FB3E0"/>
<path d="M168.992 141.416H117.585C115.811 141.416 114.368 139.973 114.368 138.199V117.225C114.368 115.451 115.811 114.008 117.585 114.008H168.992C170.766 114.008 172.209 115.451 172.209 117.225V138.199C172.209 139.973 170.766 141.416 168.992 141.416Z" fill="white"/>
<path d="M172.115 117.225V138.199C172.115 139.925 170.718 141.322 168.992 141.322H143.763C140.105 136.98 137.901 131.375 137.901 125.255C137.901 121.246 138.846 117.459 140.527 114.102H168.992C170.718 114.102 172.115 115.499 172.115 117.225Z" fill="#E6E6E6"/>
<path d="M168.992 141.787H117.585C115.607 141.787 113.997 140.178 113.997 138.199V117.225C113.997 115.247 115.607 113.638 117.585 113.638H168.992C170.97 113.638 172.579 115.247 172.579 117.225V138.199C172.579 140.178 170.97 141.787 168.992 141.787ZM117.585 114.378C116.015 114.378 114.738 115.655 114.738 117.225V138.199C114.738 139.769 116.015 141.046 117.585 141.046H168.992C170.562 141.046 171.839 139.769 171.839 138.199V117.225C171.839 115.655 170.562 114.378 168.992 114.378H117.585Z" fill="#3F3D56"/>
<path d="M120.7 134.234C119.397 134.234 118.337 135.293 118.337 136.596C118.337 137.899 119.397 138.959 120.7 138.959H125.993C127.295 138.959 128.355 137.899 128.355 136.596C128.355 135.293 127.295 134.234 125.993 134.234H120.7Z" fill="#6FB3E0"/>
<path d="M136.809 116.087C134.753 116.087 133.081 117.76 133.081 119.815C133.081 121.871 134.753 123.543 136.809 123.543H145.042C147.098 123.543 148.77 121.871 148.77 119.815C148.77 117.76 147.098 116.087 145.042 116.087H136.809Z" fill="#6FB3E0"/>
<path d="M172.479 122.604C167.758 125.062 162.662 124.619 161.098 121.614C159.534 118.609 162.093 114.181 166.817 111.722C168.69 110.714 170.778 110.17 172.905 110.134L193.041 99.9698L197.04 107.943L177.273 118.527C176.024 120.249 174.38 121.647 172.479 122.604Z" fill="#A0616A"/>
<path d="M195.373 35.9667C195.373 35.9667 216.114 34.8555 220.559 45.9671C225.004 57.0786 228.707 93.3764 228.707 93.3764L183.52 117.96L175.742 105.97L206.114 82.2648L195.373 35.9667Z" fill="#3F3D56"/>
</svg>
