<svg width="86" height="75" viewBox="0 0 86 75" fill="none" xmlns="http://www.w3.org/2000/svg">
<path d="M0.782715 8.22803C0.782715 3.80975 4.36444 0.228027 8.78271 0.228027H77.7827C82.201 0.228027 85.7827 3.80975 85.7827 8.22803V66.603C85.7827 71.0213 82.201 74.603 77.7827 74.603H8.78271C4.36444 74.603 0.782715 71.0213 0.782715 66.603V8.22803Z" fill="#498CC3" fill-opacity="0.2"/>
<g clip-path="url(#clip0_1_2524)">
<path d="M38.3954 28.1054C33.5747 28.1054 29.6526 24.1834 29.6526 19.3626C29.6526 14.5419 33.5747 10.6199 38.3954 10.6199C43.2161 10.6199 47.1381 14.5419 47.1381 19.3626C47.1381 24.1834 43.2161 28.1054 38.3954 28.1054ZM38.3954 12.3919C34.5489 12.3919 31.4247 15.5162 31.4247 19.3626C31.4247 23.2091 34.5489 26.3334 38.3954 26.3334C42.2418 26.3334 45.3661 23.2091 45.3661 19.3626C45.3661 15.5162 42.2418 12.3919 38.3954 12.3919Z" fill="#498CC3"/>
<path d="M53.1263 42.8363C52.6392 42.8363 52.2444 42.4416 52.2444 41.9545C52.2444 34.3203 46.038 28.1138 38.4038 28.1138C30.7696 28.1138 24.5548 34.3119 24.5548 41.9461C24.5548 42.4332 24.1601 42.8279 23.6729 42.8279C23.1858 42.8279 22.7827 42.4332 22.7827 41.9461C22.7827 33.3377 29.787 26.3334 38.3954 26.3334C47.0038 26.3334 54.0081 33.3377 54.0081 41.9461C54.0081 42.4332 53.6134 42.8363 53.1263 42.8363Z" fill="#498CC3"/>
<path d="M64.9008 25.3591H51.1526C50.6655 25.3591 50.2708 24.9644 50.2708 24.4773C50.2708 23.9902 50.6655 23.5955 51.1526 23.5955H64.9008C65.3879 23.5955 65.7827 23.9902 65.7827 24.4773C65.7827 24.9644 65.3879 25.3591 64.9008 25.3591Z" fill="#498CC3"/>
<path d="M58.0225 32.2291C57.5354 32.2291 57.1406 31.8344 57.1406 31.3472V17.599C57.1406 17.1119 57.5354 16.7172 58.0225 16.7172C58.5096 16.7172 58.9043 17.1119 58.9043 17.599V31.3472C58.9127 31.8344 58.5096 32.2291 58.0225 32.2291Z" fill="#498CC3"/>
</g>
<defs>
<clipPath id="clip0_1_2524">
<rect width="43" height="43" fill="white" transform="translate(22.7827 5.22803)"/>
</clipPath>
</defs>
</svg>
