<svg width="48" height="41" viewBox="0 0 48 41" fill="none" xmlns="http://www.w3.org/2000/svg">
<g clip-path="url(#clip0_1_775)">
<path d="M10.7685 12.8C14.0738 12.8 16.751 9.936 16.751 6.4C16.751 2.864 14.0738 0 10.7685 0C7.46317 0 4.786 2.864 4.786 6.4C4.786 9.936 7.46317 12.8 10.7685 12.8ZM38.288 12.8C41.5933 12.8 44.2705 9.936 44.2705 6.4C44.2705 2.864 41.5933 0 38.288 0C34.9827 0 32.3055 2.864 32.3055 6.4C32.3055 9.936 34.9827 12.8 38.288 12.8ZM0 23.896C0 24.832 0.7179 25.6 1.59284 25.6H17.5512C17.5661 25.6 17.5811 25.6 17.6035 25.6C15.6143 23.72 14.3655 20.976 14.3655 17.92C14.3655 17.312 14.4178 16.72 14.5076 16.136C13.4905 15.632 12.3613 15.36 11.1723 15.36H7.97916C3.57454 15.36 0 19.184 0 23.896ZM23.93 25.6C25.7247 25.6 27.3625 24.896 28.6188 23.736C28.8057 23.44 29.0076 23.152 29.217 22.88C29.4189 22.616 29.6433 22.392 29.8901 22.216C30.6603 20.984 31.109 19.512 31.109 17.92C31.109 13.68 27.8934 10.24 23.93 10.24C19.9666 10.24 16.751 13.68 16.751 17.92C16.751 22.16 19.9666 25.6 23.93 25.6ZM28.8207 30.416C28.0504 29.944 27.4672 29.12 27.2652 28.16H19.5403C14.0364 28.16 9.572 32.936 9.572 38.824C9.572 40 10.4619 40.96 11.5687 40.96H34.0404C33.8834 40.544 33.8011 40.088 33.8011 39.648V39.408C33.7039 39.352 33.5992 39.288 33.502 39.224L33.3076 39.344C32.0512 40.12 30.2789 39.984 29.217 38.568C28.8805 38.12 28.5739 37.648 28.2897 37.16L28.2823 37.144L28.2748 37.128L28.0953 36.8L28.0878 36.784L28.0804 36.768C27.8261 36.272 27.6018 35.76 27.4073 35.224C26.7941 33.528 27.5718 31.816 28.8282 31.04L29.0301 30.92C29.0301 30.856 29.0301 30.8 29.0301 30.736C29.0301 30.672 29.0301 30.616 29.0301 30.552L28.8282 30.432L28.8207 30.416ZM39.8808 15.36H36.6952C35.5061 15.36 34.3769 15.64 33.3599 16.136C33.4571 16.712 33.502 17.312 33.502 17.92C33.502 19.312 33.2403 20.632 32.7766 21.84C32.9636 21.912 33.143 22 33.3076 22.104L33.502 22.224C33.5992 22.16 33.6964 22.096 33.8011 22.04V21.8C33.8011 20.248 34.7957 18.672 36.4783 18.392C37.0691 18.296 37.6748 18.24 38.288 18.24C38.9012 18.24 39.5069 18.288 40.0977 18.392C41.7803 18.672 42.7749 20.248 42.7749 21.8V22.04C42.8721 22.096 42.9768 22.16 43.074 22.224L43.2684 22.104C44.5248 21.328 46.2971 21.464 47.359 22.88C47.531 23.104 47.6955 23.344 47.8525 23.576C47.6955 19.008 44.1882 15.36 39.8808 15.36ZM46.7084 28.472C47.1795 28.184 47.4188 27.584 47.2169 27.032C47.0598 26.592 46.8729 26.168 46.6635 25.76L46.4915 25.44C46.2597 25.032 46.0054 24.648 45.7287 24.28C45.3847 23.824 44.779 23.744 44.3079 24.04L42.9543 24.88C42.2888 24.272 41.526 23.792 40.681 23.472V21.792C40.681 21.208 40.3146 20.688 39.7761 20.6C39.2901 20.52 38.7965 20.48 38.288 20.48C37.7795 20.48 37.2859 20.52 36.7999 20.6C36.2614 20.688 35.895 21.208 35.895 21.792V23.472C35.0574 23.792 34.2872 24.272 33.6217 24.88L32.2606 24.04C31.7895 23.752 31.1838 23.832 30.8398 24.28C30.5631 24.648 30.3088 25.04 30.077 25.448L29.905 25.76C29.6956 26.168 29.5087 26.592 29.3516 27.032C29.1572 27.576 29.389 28.176 29.8602 28.464L31.2212 29.304C31.1464 29.76 31.1015 30.232 31.1015 30.712C31.1015 31.192 31.1464 31.664 31.2212 32.112L29.8602 32.952C29.389 33.24 29.1497 33.84 29.3516 34.384C29.5087 34.824 29.6956 35.24 29.905 35.648L30.0845 35.976C30.3088 36.384 30.5631 36.768 30.8398 37.136C31.1838 37.592 31.7895 37.672 32.2606 37.376L33.6217 36.56C34.2872 37.168 35.0574 37.648 35.895 37.968V39.648C35.895 40.232 36.2614 40.752 36.7999 40.84C37.2859 40.92 37.7795 40.96 38.288 40.96C38.7965 40.96 39.2901 40.92 39.7761 40.84C40.3146 40.752 40.681 40.232 40.681 39.648V37.968C41.5185 37.648 42.2888 37.168 42.9543 36.56L44.3154 37.4C44.7865 37.688 45.3922 37.608 45.7362 37.16C46.0129 36.792 46.2672 36.408 46.4915 36L46.671 35.664C46.8804 35.256 47.0673 34.84 47.2244 34.4C47.4188 33.856 47.187 33.256 46.7158 32.968L45.3548 32.128C45.4296 31.672 45.4745 31.2 45.4745 30.728C45.4745 30.256 45.4296 29.776 45.3548 29.32L46.7158 28.48L46.7084 28.472ZM41.2792 30.72C41.2792 32.488 39.9407 33.92 38.288 33.92C36.6353 33.92 35.2967 32.488 35.2967 30.72C35.2967 28.952 36.6353 27.52 38.288 27.52C39.9407 27.52 41.2792 28.952 41.2792 30.72Z" fill="white"/>
</g>
<defs>
<clipPath id="clip0_1_775">
<rect width="47.86" height="40.96" fill="white"/>
</clipPath>
</defs>
</svg>
